<svg xmlns="http://www.w3.org/2000/svg" width="32" height="32" fill="none"><path fill="#000" d="M5.333 5.333v-1h-1v1h1zm21.334 0h1v-1h-1v1zm-18.04 9.96a1 1 0 1 0 1.413 1.414l-1.414-1.414zM13.332 12l.707-.707a1 1 0 0 0-1.414 0l.707.707zm4 4-.707.707a1 1 0 0 0 1.414 0L17.333 16zm6.04-4.626A1 1 0 0 0 21.96 9.96l1.414 1.414zM9.96 27.293a1 1 0 1 0 1.414 1.414L9.96 27.293zM16 22.667l.707-.707a1 1 0 0 0-1.414 0l.707.707zm4.626 6.04a1 1 0 1 0 1.414-1.414l-1.414 1.414zM4 4.333a1 1 0 0 0 0 2v-2zm24 2a1 1 0 1 0 0-2v2zm-22.667 0h21.334v-2H5.333v2zm20.334-1v16h2v-16h-2zm-.334 16.334H6.667v2h18.666v-2zm-19-.334v-16h-2v16h2zm.334.334a.333.333 0 0 1-.334-.334h-2a2.333 2.333 0 0 0 2.334 2.334v-2zm19-.334c0 .184-.15.334-.334.334v2a2.333 2.333 0 0 0 2.334-2.334h-2zM10.04 16.707l4-4-1.414-1.414-4 4 1.414 1.414zm2.586-4 4 4 1.414-1.414-4-4-1.414 1.414zm5.414 4 5.334-5.333L21.96 9.96l-5.334 5.333 1.414 1.414zm-6.666 12 5.333-5.333-1.414-1.414-5.333 5.333 1.414 1.414zm3.919-5.333 5.333 5.333 1.414-1.414-5.333-5.333-1.414 1.414zM4 6.334h24v-2H4v2z"/></svg>