<svg width="32" height="32" viewBox="0 0 32 32" fill="none" xmlns="http://www.w3.org/2000/svg"><path d="M22.5 25C24.433 25 26 23.433 26 21.5 26 19.567 24.433 18 22.5 18 20.567 18 19 19.567 19 21.5 19 23.433 20.567 25 22.5 25z" stroke="#28272b" stroke-width="1.5" stroke-linecap="round" stroke-linejoin="round"/><path d="M6.5 29C8.433 29 10 27.433 10 25.5 10 23.567 8.433 22 6.5 22 4.567 22 3 23.567 3 25.5 3 27.433 4.567 29 6.5 29z" stroke="#28272b" stroke-width="1.5" stroke-linecap="round" stroke-linejoin="round"/><path d="M10 25.5V8L26 4V21.5" stroke="#28272b" stroke-width="1.5" stroke-linecap="round" stroke-linejoin="round"/></svg>