<svg width="32" height="32" viewBox="0 0 32 32" fill="none" xmlns="http://www.w3.org/2000/svg">
<path d="M25 17C25 15.3573 24.9387 13.7293 24.816 12.1173C24.7217 10.8402 24.1716 9.63944 23.2661 8.73391C22.3605 7.82837 21.1598 7.27832 19.8827 7.18398C16.6322 6.93875 13.3678 6.93875 10.1173 7.18398C8.8402 7.27832 7.63946 7.82837 6.73393 8.73391C5.82839 9.63944 5.27834 10.8402 5.184 12.1173C5.16133 12.4106 5.14133 12.7053 5.12267 13M25 17L29 13M25 17L21 13M5 17C5 18.6426 5.06133 20.2706 5.184 21.8826C5.27834 23.1598 5.82839 24.3605 6.73393 25.2661C7.63946 26.1716 8.8402 26.7216 10.1173 26.816C13.3678 27.0613 16.6322 27.0613 19.8827 26.816C21.1598 26.7216 22.3605 26.1716 23.2661 25.2661C24.1716 24.3605 24.7217 23.1598 24.816 21.8826C24.8387 21.5893 24.8587 21.2946 24.8773 21M5 17L9 21M5 17L1 21" stroke="#000" stroke-width="2" stroke-linecap="round" stroke-linejoin="round"/>
</svg>
