<svg width="32" height="32" viewBox="0 0 32 32" fill="none" xmlns="http://www.w3.org/2000/svg"><path d="M14.6667 7.84291V25.6536C14.6667 26.9495 13.6161 28 12.3202 28 11.3286 28 10.444 27.3766 10.1105 26.4428L7.24863 18.2438M24 17.3333C26.2091 17.3333 28 15.5425 28 13.3333 28 11.1242 26.2091 9.33333 24 9.33333M7.24863 18.2438C5.33906 17.4321 4 15.5391 4 13.3333 4 10.3878 6.38781 8 9.33332 8H11.7761C17.2436 8 21.9425 6.35454 24 4V22.6667C21.9425 20.3121 17.2436 18.6667 11.7761 18.6667H9.3333C8.59357 18.6667 7.88902 18.5161 7.24863 18.2438z" stroke="#28272b" stroke-width="2" stroke-linecap="round" stroke-linejoin="round"/></svg>