<svg width="198" height="28" viewBox="0 0 198 28" fill="none" xmlns="http://www.w3.org/2000/svg">
<g clip-path="url(#clip0_1501_3460)">
<path d="M21.513 24.6907L17.8299 18.2904C17.7446 18.1421 17.8286 17.9498 17.9964 17.9113L22.4587 16.916C22.6798 16.8681 22.7303 16.5774 22.5437 16.4524L9.27117 7.66406C9.09681 7.5484 8.86178 7.68208 8.87709 7.89233L9.82621 23.8213C9.84055 24.0461 10.1171 24.1474 10.269 23.9793L13.3592 20.5997C13.4762 20.4729 13.6815 20.4953 13.7697 20.6446L17.4473 27.0434C17.5184 27.1671 17.6739 27.2089 17.7969 27.1375L21.4202 25.0387C21.5426 24.9703 21.5849 24.8116 21.513 24.6906L21.513 24.6907Z" fill="white"/>
<path d="M13.2823 7.30199C13.4515 7.34755 13.6379 7.32905 13.8004 7.23247L17.086 5.32944C17.4131 5.13997 17.5252 4.71939 17.3362 4.39096C17.1472 4.06252 16.7281 3.94967 16.401 4.13914L13.1154 6.04237C12.7883 6.23184 12.6762 6.65241 12.8652 6.98085C12.9607 7.14691 13.1129 7.25639 13.2823 7.302L13.2823 7.30199Z" fill="white"/>
<path d="M6.15531 7.80394C6.25258 7.43912 6.03509 7.06116 5.67155 6.96327L2.00547 5.97611C1.64192 5.87822 1.26551 6.09626 1.16824 6.46107C1.07097 6.82589 1.28846 7.20385 1.652 7.30174L5.31808 8.28891C5.68163 8.3868 6.05804 8.16876 6.15531 7.80394Z" fill="white"/>
<path d="M10.6585 5.24964C11.0221 5.34753 11.3985 5.12949 11.4958 4.76467L12.4767 1.0857C12.574 0.720874 12.3565 0.342918 11.9929 0.245028C11.6294 0.147138 11.253 0.365177 11.1557 0.729996L10.1748 4.40897C10.0775 4.77379 10.295 5.15175 10.6585 5.24964Z" fill="white"/>
<path d="M5.56259 10.3398L2.27694 12.243C1.94985 12.4325 1.83771 12.8531 2.02671 13.1815C2.12014 13.3439 2.27166 13.4565 2.44084 13.5021C2.61004 13.5476 2.79651 13.5291 2.95899 13.4326L6.24464 11.5293C6.57173 11.3399 6.68387 10.9193 6.49488 10.5908C6.30878 10.2632 5.8897 10.1503 5.56261 10.3398L5.56259 10.3398Z" fill="white"/>
<path d="M6.23048 1.3527C6.04148 1.02427 5.62238 0.911419 5.29529 1.10089C4.9682 1.29035 4.85606 1.71093 5.04506 2.03937L6.94356 5.33853C7.037 5.5009 7.18852 5.61353 7.3577 5.65909C7.5269 5.70465 7.71337 5.68615 7.87585 5.58957C8.20294 5.4001 8.31508 4.97952 8.12608 4.65109L6.23048 1.3527Z" fill="white"/>
<path d="M32.3327 14.1802C32.2922 11.2908 33.335 8.81841 35.4611 6.7632C37.5873 4.68766 40.1082 3.6804 43.024 3.74145C44.9274 3.74145 46.6486 4.18912 48.1875 5.08445C49.7466 5.95944 50.9717 7.18035 51.8626 8.74719L48.7646 10.9448C47.3269 8.68614 45.4134 7.5568 43.024 7.5568C41.1612 7.5568 39.6121 8.1876 38.377 9.44921C37.162 10.7108 36.5546 12.298 36.5546 14.2108C36.5546 16.1235 37.162 17.7005 38.377 18.9418C39.6121 20.1831 41.1612 20.8037 43.024 20.8037C45.4134 20.8037 47.3269 19.6743 48.7646 17.4157L51.8626 19.6133C50.9919 21.1801 49.777 22.4112 48.2179 23.3066C46.6587 24.1815 44.9173 24.619 42.9937 24.619C40.0576 24.6801 37.5265 23.683 35.4004 21.6278C33.2945 19.5522 32.2719 17.0697 32.3327 14.1802Z" fill="white"/>
<path d="M55.3472 24.2528V4.10772H59.4476V20.529H68.2255V24.2528H55.3472Z" fill="white"/>
<path d="M71.2754 24.2528V4.10772H75.3757V24.2528H71.2754Z" fill="white"/>
<path d="M78.8119 14.1802C78.7714 11.2908 79.8143 8.81841 81.9404 6.7632C84.0665 4.68766 86.5875 3.6804 89.5033 3.74145C91.4067 3.74145 93.1278 4.18912 94.6667 5.08445C96.2259 5.95944 97.4509 7.18035 98.3419 8.74719L95.2438 10.9448C93.8062 8.68614 91.8926 7.5568 89.5033 7.5568C87.6404 7.5568 86.0914 8.1876 84.8562 9.44921C83.6413 10.7108 83.0338 12.298 83.0338 14.2108C83.0338 16.1235 83.6413 17.7005 84.8562 18.9418C86.0914 20.1831 87.6404 20.8037 89.5033 20.8037C91.8926 20.8037 93.8062 19.6743 95.2438 17.4157L98.3419 19.6133C97.4712 21.1801 96.2563 22.4112 94.6971 23.3066C93.1379 24.1815 91.3966 24.619 89.4729 24.619C86.5368 24.6801 84.0057 23.683 81.8796 21.6278C79.7738 19.5522 78.7512 17.0697 78.8119 14.1802Z" fill="white"/>
<path d="M119.473 24.2528H114.522L105.927 13.7529V24.2528H101.826V4.10772H105.927V13.4477L113.581 4.10772H118.471L110.787 13.6003L119.473 24.2528Z" fill="white"/>
<g opacity="0.5">
<path d="M122.174 24.4916V4.3466H126.274V12.0689H135.143V4.3466H139.244V24.4916H135.143V15.7926H126.274V24.4916H122.174Z" fill="white"/>
<path d="M143.827 24.4916V4.3466H157.313V8.07038H147.927V12.1604H154.822V15.6706H147.927V20.7679H157.677V24.4916H143.827Z" fill="white"/>
<path d="M178.156 24.4916H173.539L168.345 17.3798H165.338V24.4916H161.238V4.3466H168.771C170.876 4.3466 172.608 4.94689 173.964 6.14745C175.321 7.34801 175.999 8.91485 175.999 10.848C175.999 12.1096 175.686 13.2491 175.058 14.2665C174.45 15.2636 173.59 16.0368 172.476 16.5862L178.156 24.4916ZM165.338 7.97882V13.7476H168.771C169.722 13.7476 170.461 13.4831 170.988 12.954C171.535 12.425 171.808 11.7229 171.808 10.848C171.808 9.99332 171.524 9.30147 170.957 8.77241C170.411 8.24335 169.682 7.97882 168.771 7.97882H165.338Z" fill="white"/>
<path d="M180.666 24.4916V4.3466H194.152V8.07038H184.767V12.1604H191.661V15.6706H184.767V20.7679H194.516V24.4916H180.666Z" fill="white"/>
</g>
</g>
<defs>
<clipPath id="clip0_1501_3460">
<rect width="196" height="28" fill="white" transform="translate(0.875)"/>
</clipPath>
</defs>
</svg>
