<svg xmlns="http://www.w3.org/2000/svg" width="198" height="28" fill="none"><g fill="#fff" clip-path="url(#a)"><path d="m21.513 24.69-3.683-6.4a.259.259 0 0 1 .166-.379l4.463-.995c.22-.048.271-.339.085-.464L9.27 7.664a.254.254 0 0 0-.394.228l.95 15.93c.014.224.29.325.442.157l3.09-3.38a.257.257 0 0 1 .41.046l3.678 6.398a.254.254 0 0 0 .35.095l3.623-2.1a.253.253 0 0 0 .093-.347ZM13.282 7.302c.17.046.356.027.518-.07l3.286-1.903c.327-.189.44-.61.25-.938a.684.684 0 0 0-.935-.252l-3.286 1.903a.689.689 0 0 0 .167 1.26ZM6.155 7.804a.689.689 0 0 0-.483-.84l-3.667-.988a.685.685 0 0 0-.837.485.689.689 0 0 0 .484.84l3.666.988c.364.098.74-.12.837-.485ZM10.659 5.25c.363.098.74-.12.837-.485l.98-3.68a.689.689 0 0 0-.483-.84.685.685 0 0 0-.837.485l-.981 3.679a.689.689 0 0 0 .483.84ZM5.563 10.34l-3.286 1.903a.689.689 0 0 0 .164 1.26.67.67 0 0 0 .518-.07l3.286-1.904c.327-.19.439-.61.25-.938a.68.68 0 0 0-.932-.251ZM6.23 1.353a.684.684 0 1 0-1.185.686l1.899 3.3a.685.685 0 0 0 .414.32.689.689 0 0 0 .768-1.008L6.23 1.353ZM32.333 14.18c-.04-2.89 1.002-5.362 3.128-7.417 2.126-2.075 4.647-3.083 7.563-3.022 1.903 0 3.625.448 5.163 1.343a9.511 9.511 0 0 1 3.676 3.663l-3.098 2.198c-1.438-2.259-3.352-3.388-5.741-3.388-1.863 0-3.412.63-4.647 1.892-1.215 1.262-1.822 2.849-1.822 4.762 0 1.912.607 3.49 1.822 4.73 1.235 1.242 2.784 1.863 4.647 1.863 2.39 0 4.303-1.13 5.74-3.388l3.099 2.197a9.514 9.514 0 0 1-3.645 3.694c-1.56.875-3.3 1.312-5.224 1.312-2.936.061-5.468-.936-7.594-2.991-2.105-2.076-3.128-4.558-3.067-7.448ZM55.347 24.253V4.108h4.1v16.421h8.778v3.724H55.347ZM71.275 24.253V4.108h4.1v20.145h-4.1ZM78.812 14.18c-.04-2.89 1.002-5.362 3.128-7.417 2.127-2.075 4.648-3.083 7.563-3.022 1.904 0 3.625.448 5.164 1.343a9.512 9.512 0 0 1 3.675 3.663l-3.098 2.198c-1.438-2.259-3.351-3.388-5.74-3.388-1.864 0-3.413.63-4.648 1.892-1.215 1.262-1.822 2.849-1.822 4.762 0 1.912.607 3.49 1.822 4.73 1.235 1.242 2.784 1.863 4.647 1.863 2.39 0 4.303-1.13 5.74-3.388l3.099 2.197a9.513 9.513 0 0 1-3.645 3.694c-1.56.875-3.3 1.312-5.224 1.312-2.936.061-5.467-.936-7.593-2.991-2.106-2.076-3.129-4.558-3.068-7.448ZM119.473 24.253h-4.951l-8.595-10.5v10.5h-4.101V4.108h4.101v9.34l7.654-9.34h4.89l-7.684 9.492 8.686 10.653Z"/><g opacity=".5"><path d="M122.174 24.492V4.347h4.1v7.722h8.869V4.347h4.101v20.145h-4.101v-8.7h-8.869v8.7h-4.1ZM143.827 24.492V4.347h13.486V8.07h-9.386v4.09h6.895v3.51h-6.895v5.098h9.75v3.724h-13.85ZM178.156 24.492h-4.617l-5.194-7.112h-3.007v7.112h-4.1V4.347h7.533c2.105 0 3.837.6 5.193 1.8 1.357 1.201 2.035 2.768 2.035 4.701 0 1.262-.313 2.401-.941 3.418-.608.998-1.468 1.77-2.582 2.32l5.68 7.906ZM165.338 7.979v5.769h3.433c.951 0 1.69-.265 2.217-.794.547-.529.82-1.231.82-2.106 0-.855-.284-1.547-.851-2.076-.546-.529-1.275-.793-2.186-.793h-3.433ZM180.666 24.492V4.347h13.486V8.07h-9.385v4.09h6.894v3.51h-6.894v5.098h9.749v3.724h-13.85Z"/></g></g><defs><clipPath id="a"><path fill="#fff" d="M.875 0h196v28h-196z"/></clipPath></defs></svg>