<svg xmlns="http://www.w3.org/2000/svg" width="170" height="24" fill="none"><g clip-path="url(#a)"><path fill="#fff" d="m18.44 21.163-3.157-5.485a.222.222 0 0 1 .143-.325l3.824-.854c.19-.04.233-.29.073-.397L7.947 6.57a.218.218 0 0 0-.338.196l.813 13.653c.013.193.25.28.38.136l2.649-2.897a.22.22 0 0 1 .352.038l3.152 5.485a.218.218 0 0 0 .3.08l3.105-1.798a.217.217 0 0 0 .08-.299ZM11.385 6.259a.573.573 0 0 0 .444-.06l2.816-1.63a.59.59 0 0 0 .215-.805.586.586 0 0 0-.802-.216l-2.816 1.631a.59.59 0 0 0 .143 1.08ZM5.276 6.69a.59.59 0 0 0-.415-.721L1.72 5.122a.587.587 0 0 0-.303 1.137l3.142.846a.587.587 0 0 0 .718-.416ZM9.136 4.5a.587.587 0 0 0 .718-.416l.84-3.153A.587.587 0 1 0 9.562.626l-.84 3.153a.59.59 0 0 0 .414.72ZM4.768 8.863l-2.816 1.631a.59.59 0 0 0 .14 1.08c.145.038.305.022.444-.06l2.817-1.632a.59.59 0 0 0 .214-.804.583.583 0 0 0-.8-.215ZM5.34 1.16a.586.586 0 1 0-1.016.588l1.628 2.828c.08.139.21.236.355.275a.59.59 0 0 0 .659-.864L5.34 1.159ZM27.714 12.154c-.035-2.476.859-4.595 2.681-6.357 1.823-1.78 3.984-2.642 6.483-2.59 1.631 0 3.106.384 4.426 1.151a8.153 8.153 0 0 1 3.15 3.14L41.798 9.38c-1.232-1.936-2.872-2.904-4.92-2.904-1.597 0-2.925.54-3.983 1.622-1.042 1.082-1.563 2.442-1.563 4.082 0 1.639.521 2.99 1.563 4.055 1.058 1.064 2.386 1.596 3.983 1.596 2.048 0 3.688-.968 4.92-2.904l2.656 1.883a8.153 8.153 0 0 1-3.124 3.166c-1.337.75-2.83 1.125-4.478 1.125-2.517.052-4.686-.802-6.509-2.564-1.805-1.779-2.681-3.907-2.63-6.384ZM47.44 20.788V3.521h3.515v14.075h7.524v3.192H47.441ZM61.093 20.788V3.521h3.515v17.267h-3.515ZM67.553 12.154c-.035-2.476.86-4.595 2.682-6.357 1.822-1.78 3.983-2.642 6.482-2.59 1.632 0 3.107.384 4.426 1.151a8.152 8.152 0 0 1 3.15 3.14L81.638 9.38c-1.233-1.936-2.873-2.904-4.92-2.904-1.598 0-2.925.54-3.984 1.622-1.041 1.082-1.562 2.442-1.562 4.082 0 1.639.52 2.99 1.562 4.055 1.059 1.064 2.386 1.596 3.983 1.596 2.048 0 3.688-.968 4.92-2.904l2.656 1.883a8.153 8.153 0 0 1-3.124 3.166c-1.337.75-2.83 1.125-4.478 1.125-2.517.052-4.686-.802-6.508-2.564-1.806-1.779-2.682-3.907-2.63-6.384ZM102.406 20.788h-4.244l-7.368-9v9H87.28V3.521h3.514v8.006l6.561-8.006h4.192l-6.587 8.136 7.446 9.131Z"/><path fill="#257BF4" d="M104.721 20.993V3.726h3.514v6.619h7.602v-6.62h3.515v17.268h-3.515v-7.456h-7.602v7.456h-3.514ZM123.28 20.993V3.726h11.559v3.191h-8.044v3.506h5.91v3.009h-5.91V17.8h8.357v3.192H123.28ZM152.705 20.993h-3.957l-4.452-6.096h-2.577v6.096h-3.515V3.726h6.457c1.805 0 3.288.514 4.451 1.543 1.163 1.03 1.745 2.372 1.745 4.03 0 1.08-.269 2.057-.807 2.93-.521.854-1.259 1.517-2.213 1.988l4.868 6.776ZM141.719 6.839v4.945h2.942c.815 0 1.449-.227 1.9-.68.469-.454.703-1.056.703-1.806 0-.732-.243-1.325-.729-1.779-.469-.453-1.093-.68-1.874-.68h-2.942ZM154.857 20.993V3.726h11.559v3.191h-8.045v3.506h5.91v3.009h-5.91V17.8h8.357v3.192h-11.871Z"/></g><defs><clipPath id="a"><path fill="#fff" d="M.75 0h168v24H.75z"/></clipPath></defs></svg>