<svg width="645" height="500" viewBox="0 0 645 500" fill="none" xmlns="http://www.w3.org/2000/svg">
<g clip-path="url(#clip0_1602_2401)">
<mask id="mask0_1602_2401" style="mask-type:alpha" maskUnits="userSpaceOnUse" x="1" y="6" width="643" height="494">
<path d="M322.934 6.94446L643.165 499.213L1.65145 499.898L322.934 6.94446Z" fill="white"/>
</mask>
<g mask="url(#mask0_1602_2401)">
<rect opacity="0.2" x="-17.3437" y="433.16" width="681.424" height="62.5" fill="white"/>
<path d="M271.81 469.257V457.377H275.698C277.594 457.353 279.154 457.899 280.378 459.015C281.602 460.119 282.202 461.541 282.178 463.281C282.202 465.009 281.596 466.443 280.36 467.583C279.124 468.723 277.57 469.281 275.698 469.257H271.81ZM274.24 467.061H275.68C276.88 467.061 277.846 466.719 278.578 466.035C279.31 465.339 279.676 464.421 279.676 463.281C279.676 462.129 279.316 461.223 278.596 460.563C277.876 459.903 276.904 459.573 275.68 459.573H274.24V467.061ZM292.266 465.621H286.02C286.164 466.185 286.452 466.623 286.884 466.935C287.328 467.235 287.874 467.385 288.522 467.385C289.398 467.385 290.226 467.085 291.006 466.485L292.014 468.141C290.946 469.029 289.758 469.473 288.45 469.473C287.082 469.497 285.918 469.053 284.958 468.141C284.01 467.217 283.548 466.107 283.572 464.811C283.548 463.527 283.998 462.423 284.922 461.499C285.846 460.575 286.95 460.125 288.234 460.149C289.458 460.149 290.46 460.545 291.24 461.337C292.032 462.129 292.428 463.113 292.428 464.289C292.428 464.721 292.374 465.165 292.266 465.621ZM286.02 463.911H290.07C290.058 463.371 289.866 462.939 289.494 462.615C289.134 462.279 288.684 462.111 288.144 462.111C287.628 462.111 287.178 462.273 286.794 462.597C286.41 462.921 286.152 463.359 286.02 463.911ZM302.496 461.481C303.324 462.357 303.738 463.461 303.738 464.793C303.738 466.125 303.324 467.241 302.496 468.141C301.68 469.029 300.654 469.473 299.418 469.473C298.302 469.473 297.414 469.113 296.754 468.393V472.497H294.324V460.347H296.556V461.463C297.168 460.587 298.122 460.149 299.418 460.149C300.654 460.149 301.68 460.593 302.496 461.481ZM301.272 464.811C301.272 464.079 301.056 463.485 300.624 463.029C300.192 462.573 299.64 462.345 298.968 462.345C298.32 462.345 297.78 462.561 297.348 462.993C296.928 463.425 296.718 464.025 296.718 464.793C296.718 465.561 296.928 466.167 297.348 466.611C297.78 467.043 298.32 467.259 298.968 467.259C299.628 467.259 300.174 467.031 300.606 466.575C301.05 466.119 301.272 465.531 301.272 464.811ZM305.644 469.257V455.757H308.074V469.257H305.644ZM309.974 464.793C309.95 463.521 310.412 462.423 311.36 461.499C312.308 460.575 313.436 460.125 314.744 460.149C316.052 460.125 317.18 460.575 318.128 461.499C319.088 462.423 319.556 463.521 319.532 464.793C319.556 466.065 319.088 467.169 318.128 468.105C317.168 469.029 316.034 469.479 314.726 469.455C313.418 469.479 312.29 469.029 311.342 468.105C310.406 467.169 309.95 466.065 309.974 464.793ZM316.382 466.539C316.826 466.083 317.048 465.507 317.048 464.811C317.048 464.115 316.826 463.533 316.382 463.065C315.95 462.597 315.404 462.363 314.744 462.363C314.072 462.363 313.52 462.597 313.088 463.065C312.656 463.521 312.44 464.103 312.44 464.811C312.44 465.507 312.656 466.083 313.088 466.539C313.52 466.995 314.072 467.223 314.744 467.223C315.404 467.223 315.95 466.995 316.382 466.539ZM327.338 460.347H329.894L325.628 470.031C325.22 470.955 324.734 471.633 324.17 472.065C323.606 472.497 322.91 472.713 322.082 472.713C321.578 472.713 321.056 472.641 320.516 472.497V470.463C321.008 470.511 321.356 470.535 321.56 470.535C322.016 470.535 322.388 470.445 322.676 470.265C322.964 470.085 323.21 469.773 323.414 469.329L323.684 468.717L320.264 460.347H322.838L325.016 466.197L327.338 460.347ZM345.043 463.731V469.257H342.613V464.073C342.613 463.545 342.469 463.125 342.181 462.813C341.893 462.501 341.509 462.345 341.029 462.345C340.549 462.345 340.153 462.501 339.841 462.813C339.541 463.125 339.391 463.527 339.391 464.019V469.257H336.961V464.073C336.961 463.545 336.817 463.125 336.529 462.813C336.241 462.501 335.857 462.345 335.377 462.345C334.885 462.345 334.489 462.501 334.189 462.813C333.889 463.125 333.739 463.545 333.739 464.073V469.257H331.309V460.347H333.541V461.139C334.165 460.479 335.005 460.149 336.061 460.149C337.225 460.149 338.107 460.575 338.707 461.427C339.463 460.575 340.453 460.149 341.677 460.149C342.709 460.149 343.525 460.473 344.125 461.121C344.737 461.769 345.043 462.639 345.043 463.731ZM355.547 465.621H349.301C349.445 466.185 349.733 466.623 350.165 466.935C350.609 467.235 351.155 467.385 351.803 467.385C352.679 467.385 353.507 467.085 354.287 466.485L355.295 468.141C354.227 469.029 353.039 469.473 351.731 469.473C350.363 469.497 349.199 469.053 348.239 468.141C347.291 467.217 346.829 466.107 346.853 464.811C346.829 463.527 347.279 462.423 348.203 461.499C349.127 460.575 350.231 460.125 351.515 460.149C352.739 460.149 353.741 460.545 354.521 461.337C355.313 462.129 355.709 463.113 355.709 464.289C355.709 464.721 355.655 465.165 355.547 465.621ZM349.301 463.911H353.351C353.339 463.371 353.147 462.939 352.775 462.615C352.415 462.279 351.965 462.111 351.425 462.111C350.909 462.111 350.459 462.273 350.075 462.597C349.691 462.921 349.433 463.359 349.301 463.911ZM365.795 463.731V469.257H363.383V464.055C363.383 463.539 363.227 463.125 362.915 462.813C362.615 462.489 362.219 462.327 361.727 462.327C361.235 462.327 360.827 462.489 360.503 462.813C360.191 463.125 360.035 463.539 360.035 464.055V469.257H357.605V460.347H359.837V461.157C360.509 460.485 361.379 460.149 362.447 460.149C363.479 460.149 364.295 460.473 364.895 461.121C365.495 461.769 365.795 462.639 365.795 463.731ZM373.859 467.223V469.257C373.283 469.401 372.725 469.473 372.185 469.473C371.045 469.473 370.163 469.191 369.539 468.627C368.927 468.063 368.621 467.229 368.621 466.125V462.399H367.217V460.347H368.621V458.097H371.051V460.347H373.571V462.399H371.051V465.909C371.051 466.413 371.177 466.773 371.429 466.989C371.693 467.193 372.119 467.295 372.707 467.295C372.911 467.295 373.295 467.271 373.859 467.223Z" fill="white"/>
<rect opacity="0.2" x="26.9272" y="370.66" width="592.882" height="55.5556" fill="white"/>
<path d="M295.397 405.021V395.337H291.599V393.141H301.643V395.337H297.827V405.021H295.397ZM309.971 401.385H303.725C303.869 401.949 304.157 402.387 304.589 402.699C305.033 402.999 305.579 403.149 306.227 403.149C307.103 403.149 307.931 402.849 308.711 402.249L309.719 403.905C308.651 404.793 307.463 405.237 306.155 405.237C304.787 405.261 303.623 404.817 302.663 403.905C301.715 402.981 301.253 401.871 301.277 400.575C301.253 399.291 301.703 398.187 302.627 397.263C303.551 396.339 304.655 395.889 305.939 395.913C307.163 395.913 308.165 396.309 308.945 397.101C309.737 397.893 310.133 398.877 310.133 400.053C310.133 400.485 310.079 400.929 309.971 401.385ZM303.725 399.675H307.775C307.763 399.135 307.571 398.703 307.199 398.379C306.839 398.043 306.389 397.875 305.849 397.875C305.333 397.875 304.883 398.037 304.499 398.361C304.115 398.685 303.857 399.123 303.725 399.675ZM311.219 403.509L312.443 402.033C313.211 402.837 314.045 403.239 314.945 403.239C315.281 403.239 315.551 403.179 315.755 403.059C315.971 402.927 316.079 402.741 316.079 402.501C316.079 402.321 316.013 402.183 315.881 402.087C315.761 401.979 315.521 401.847 315.161 401.691L314.207 401.295C313.355 400.947 312.737 400.569 312.353 400.161C311.969 399.741 311.777 399.213 311.777 398.577C311.777 397.749 312.077 397.101 312.677 396.633C313.277 396.153 314.069 395.913 315.053 395.913C316.373 395.913 317.441 396.357 318.257 397.245L317.033 398.739C316.433 398.175 315.767 397.893 315.035 397.893C314.399 397.893 314.081 398.103 314.081 398.523C314.081 398.691 314.147 398.829 314.279 398.937C314.411 399.045 314.657 399.171 315.017 399.315L315.881 399.675C316.769 400.035 317.405 400.419 317.789 400.827C318.185 401.235 318.383 401.757 318.383 402.393C318.383 403.281 318.053 403.977 317.393 404.481C316.745 404.985 315.917 405.237 314.909 405.237C313.313 405.237 312.083 404.661 311.219 403.509ZM325.945 402.987V405.021C325.369 405.165 324.811 405.237 324.271 405.237C323.131 405.237 322.249 404.955 321.625 404.391C321.013 403.827 320.707 402.993 320.707 401.889V398.163H319.303V396.111H320.707V393.861H323.137V396.111H325.657V398.163H323.137V401.673C323.137 402.177 323.263 402.537 323.515 402.753C323.779 402.957 324.205 403.059 324.793 403.059C324.997 403.059 325.381 403.035 325.945 402.987ZM327.709 405.021V396.111H330.139V405.021H327.709ZM327.367 392.871C327.367 392.439 327.517 392.079 327.817 391.791C328.117 391.503 328.483 391.359 328.915 391.359C329.347 391.359 329.713 391.503 330.013 391.791C330.325 392.079 330.481 392.439 330.481 392.871C330.481 393.291 330.325 393.645 330.013 393.933C329.713 394.221 329.347 394.365 328.915 394.365C328.483 394.365 328.117 394.221 327.817 393.933C327.517 393.645 327.367 393.291 327.367 392.871ZM340.733 399.495V405.021H338.321V399.819C338.321 399.303 338.165 398.889 337.853 398.577C337.553 398.253 337.157 398.091 336.665 398.091C336.173 398.091 335.765 398.253 335.441 398.577C335.129 398.889 334.973 399.303 334.973 399.819V405.021H332.543V396.111H334.775V396.921C335.447 396.249 336.317 395.913 337.385 395.913C338.417 395.913 339.233 396.237 339.833 396.885C340.433 397.533 340.733 398.403 340.733 399.495ZM349.786 396.111H352.018V404.031C352.018 405.459 351.604 406.557 350.776 407.325C349.948 408.093 348.826 408.477 347.41 408.477C345.742 408.477 344.284 407.925 343.036 406.821L344.314 405.129C345.346 405.897 346.312 406.281 347.212 406.281C347.944 406.281 348.52 406.101 348.94 405.741C349.372 405.381 349.588 404.859 349.588 404.175V403.689C348.94 404.397 348.034 404.751 346.87 404.751C345.634 404.751 344.614 404.337 343.81 403.509C343.006 402.681 342.604 401.619 342.604 400.323C342.604 399.015 343.006 397.953 343.81 397.137C344.614 396.321 345.634 395.913 346.87 395.913C348.166 395.913 349.138 396.351 349.786 397.227V396.111ZM349.624 400.287C349.624 399.555 349.408 398.991 348.976 398.595C348.556 398.187 348.022 397.983 347.374 397.983C346.702 397.983 346.15 398.193 345.718 398.613C345.286 399.033 345.07 399.597 345.07 400.305C345.07 401.013 345.286 401.589 345.718 402.033C346.162 402.477 346.714 402.699 347.374 402.699C348.01 402.699 348.544 402.483 348.976 402.051C349.408 401.619 349.624 401.031 349.624 400.287Z" fill="white"/>
<path opacity="0.2" d="M26.9272 308.16H619.809V363.715H26.9272V308.16Z" fill="white"/>
<path d="M255.813 342.521V330.641H258.243V342.521H255.813ZM274.448 336.995V342.521H272.018V337.337C272.018 336.809 271.874 336.389 271.586 336.077C271.298 335.765 270.914 335.609 270.434 335.609C269.954 335.609 269.558 335.765 269.246 336.077C268.946 336.389 268.796 336.791 268.796 337.283V342.521H266.366V337.337C266.366 336.809 266.222 336.389 265.934 336.077C265.646 335.765 265.262 335.609 264.782 335.609C264.29 335.609 263.894 335.765 263.594 336.077C263.294 336.389 263.144 336.809 263.144 337.337V342.521H260.714V333.611H262.946V334.403C263.57 333.743 264.41 333.413 265.466 333.413C266.63 333.413 267.512 333.839 268.112 334.691C268.868 333.839 269.858 333.413 271.082 333.413C272.114 333.413 272.93 333.737 273.53 334.385C274.142 335.033 274.448 335.903 274.448 336.995ZM284.934 334.745C285.762 335.621 286.176 336.725 286.176 338.057C286.176 339.389 285.762 340.505 284.934 341.405C284.118 342.293 283.092 342.737 281.856 342.737C280.74 342.737 279.852 342.377 279.192 341.657V345.761H276.762V333.611H278.994V334.727C279.606 333.851 280.56 333.413 281.856 333.413C283.092 333.413 284.118 333.857 284.934 334.745ZM283.71 338.075C283.71 337.343 283.494 336.749 283.062 336.293C282.63 335.837 282.078 335.609 281.406 335.609C280.758 335.609 280.218 335.825 279.786 336.257C279.366 336.689 279.156 337.289 279.156 338.057C279.156 338.825 279.366 339.431 279.786 339.875C280.218 340.307 280.758 340.523 281.406 340.523C282.066 340.523 282.612 340.295 283.044 339.839C283.488 339.383 283.71 338.795 283.71 338.075ZM288.083 342.521V329.021H290.513V342.521H288.083ZM301.107 338.885H294.861C295.005 339.449 295.293 339.887 295.725 340.199C296.169 340.499 296.715 340.649 297.363 340.649C298.239 340.649 299.067 340.349 299.847 339.749L300.855 341.405C299.787 342.293 298.599 342.737 297.291 342.737C295.923 342.761 294.759 342.317 293.799 341.405C292.851 340.481 292.389 339.371 292.413 338.075C292.389 336.791 292.839 335.687 293.763 334.763C294.687 333.839 295.791 333.389 297.075 333.413C298.299 333.413 299.301 333.809 300.081 334.601C300.873 335.393 301.269 336.377 301.269 337.553C301.269 337.985 301.215 338.429 301.107 338.885ZM294.861 337.175H298.911C298.899 336.635 298.707 336.203 298.335 335.879C297.975 335.543 297.525 335.375 296.985 335.375C296.469 335.375 296.019 335.537 295.635 335.861C295.251 336.185 294.993 336.623 294.861 337.175ZM316.899 336.995V342.521H314.469V337.337C314.469 336.809 314.325 336.389 314.037 336.077C313.749 335.765 313.365 335.609 312.885 335.609C312.405 335.609 312.009 335.765 311.697 336.077C311.397 336.389 311.247 336.791 311.247 337.283V342.521H308.817V337.337C308.817 336.809 308.673 336.389 308.385 336.077C308.097 335.765 307.713 335.609 307.233 335.609C306.741 335.609 306.345 335.765 306.045 336.077C305.745 336.389 305.595 336.809 305.595 337.337V342.521H303.165V333.611H305.397V334.403C306.021 333.743 306.861 333.413 307.917 333.413C309.081 333.413 309.963 333.839 310.563 334.691C311.319 333.839 312.309 333.413 313.533 333.413C314.565 333.413 315.381 333.737 315.981 334.385C316.593 335.033 316.899 335.903 316.899 336.995ZM327.404 338.885H321.158C321.302 339.449 321.59 339.887 322.022 340.199C322.466 340.499 323.012 340.649 323.66 340.649C324.536 340.649 325.364 340.349 326.144 339.749L327.152 341.405C326.084 342.293 324.896 342.737 323.588 342.737C322.22 342.761 321.056 342.317 320.096 341.405C319.148 340.481 318.686 339.371 318.71 338.075C318.686 336.791 319.136 335.687 320.06 334.763C320.984 333.839 322.088 333.389 323.372 333.413C324.596 333.413 325.598 333.809 326.378 334.601C327.17 335.393 327.566 336.377 327.566 337.553C327.566 337.985 327.512 338.429 327.404 338.885ZM321.158 337.175H325.208C325.196 336.635 325.004 336.203 324.632 335.879C324.272 335.543 323.822 335.375 323.282 335.375C322.766 335.375 322.316 335.537 321.932 335.861C321.548 336.185 321.29 336.623 321.158 337.175ZM337.652 336.995V342.521H335.24V337.319C335.24 336.803 335.084 336.389 334.772 336.077C334.472 335.753 334.076 335.591 333.584 335.591C333.092 335.591 332.684 335.753 332.36 336.077C332.048 336.389 331.892 336.803 331.892 337.319V342.521H329.462V333.611H331.694V334.421C332.366 333.749 333.236 333.413 334.304 333.413C335.336 333.413 336.152 333.737 336.752 334.385C337.352 335.033 337.652 335.903 337.652 336.995ZM345.715 340.487V342.521C345.139 342.665 344.581 342.737 344.041 342.737C342.901 342.737 342.019 342.455 341.395 341.891C340.783 341.327 340.477 340.493 340.477 339.389V335.663H339.073V333.611H340.477V331.361H342.907V333.611H345.427V335.663H342.907V339.173C342.907 339.677 343.033 340.037 343.285 340.253C343.549 340.457 343.975 340.559 344.563 340.559C344.767 340.559 345.151 340.535 345.715 340.487ZM354.949 337.229V342.521H352.717V341.657C352.021 342.377 351.115 342.737 349.999 342.737C349.063 342.737 348.313 342.491 347.749 341.999C347.197 341.507 346.921 340.865 346.921 340.073C346.921 339.269 347.221 338.639 347.821 338.183C348.433 337.715 349.255 337.481 350.287 337.481H352.519V337.085C352.519 336.581 352.375 336.197 352.087 335.933C351.811 335.657 351.403 335.519 350.863 335.519C350.419 335.519 350.017 335.615 349.657 335.807C349.297 335.999 348.913 336.311 348.505 336.743L347.245 335.249C348.277 334.025 349.573 333.413 351.133 333.413C352.309 333.413 353.239 333.749 353.923 334.421C354.607 335.081 354.949 336.017 354.949 337.229ZM352.519 339.191V339.083H350.611C349.783 339.083 349.369 339.383 349.369 339.983C349.369 340.283 349.483 340.523 349.711 340.703C349.951 340.871 350.263 340.955 350.647 340.955C351.187 340.955 351.631 340.793 351.979 340.469C352.339 340.133 352.519 339.707 352.519 339.191ZM363.012 340.487V342.521C362.436 342.665 361.878 342.737 361.338 342.737C360.198 342.737 359.316 342.455 358.692 341.891C358.08 341.327 357.774 340.493 357.774 339.389V335.663H356.37V333.611H357.774V331.361H360.204V333.611H362.724V335.663H360.204V339.173C360.204 339.677 360.33 340.037 360.582 340.253C360.846 340.457 361.272 340.559 361.86 340.559C362.064 340.559 362.448 340.535 363.012 340.487ZM364.776 342.521V333.611H367.206V342.521H364.776ZM364.434 330.371C364.434 329.939 364.584 329.579 364.884 329.291C365.184 329.003 365.55 328.859 365.982 328.859C366.414 328.859 366.78 329.003 367.08 329.291C367.392 329.579 367.548 329.939 367.548 330.371C367.548 330.791 367.392 331.145 367.08 331.433C366.78 331.721 366.414 331.865 365.982 331.865C365.55 331.865 365.184 331.721 364.884 331.433C364.584 331.145 364.434 330.791 364.434 330.371ZM369.106 338.057C369.082 336.785 369.544 335.687 370.492 334.763C371.44 333.839 372.568 333.389 373.876 333.413C375.184 333.389 376.312 333.839 377.26 334.763C378.22 335.687 378.688 336.785 378.664 338.057C378.688 339.329 378.22 340.433 377.26 341.369C376.3 342.293 375.166 342.743 373.858 342.719C372.55 342.743 371.422 342.293 370.474 341.369C369.538 340.433 369.082 339.329 369.106 338.057ZM375.514 339.803C375.958 339.347 376.18 338.771 376.18 338.075C376.18 337.379 375.958 336.797 375.514 336.329C375.082 335.861 374.536 335.627 373.876 335.627C373.204 335.627 372.652 335.861 372.22 336.329C371.788 336.785 371.572 337.367 371.572 338.075C371.572 338.771 371.788 339.347 372.22 339.803C372.652 340.259 373.204 340.487 373.876 340.487C374.536 340.487 375.082 340.259 375.514 339.803ZM388.751 336.995V342.521H386.339V337.319C386.339 336.803 386.183 336.389 385.871 336.077C385.571 335.753 385.175 335.591 384.683 335.591C384.191 335.591 383.783 335.753 383.459 336.077C383.147 336.389 382.991 336.803 382.991 337.319V342.521H380.561V333.611H382.793V334.421C383.465 333.749 384.335 333.413 385.403 333.413C386.435 333.413 387.251 333.737 387.851 334.385C388.451 335.033 388.751 335.903 388.751 336.995Z" fill="white"/>
<rect opacity="0.2" x="26.9272" y="245.66" width="592.882" height="55.5556" fill="white"/>
<path d="M294.642 280.021V268.141H298.53C300.426 268.117 301.986 268.663 303.21 269.779C304.434 270.883 305.034 272.305 305.01 274.045C305.034 275.773 304.428 277.207 303.192 278.347C301.956 279.487 300.402 280.045 298.53 280.021H294.642ZM297.072 277.825H298.512C299.712 277.825 300.678 277.483 301.41 276.799C302.142 276.103 302.508 275.185 302.508 274.045C302.508 272.893 302.148 271.987 301.428 271.327C300.708 270.667 299.736 270.337 298.512 270.337H297.072V277.825ZM315.098 276.385H308.852C308.996 276.949 309.284 277.387 309.716 277.699C310.16 277.999 310.706 278.149 311.354 278.149C312.23 278.149 313.058 277.849 313.838 277.249L314.846 278.905C313.778 279.793 312.59 280.237 311.282 280.237C309.914 280.261 308.75 279.817 307.79 278.905C306.842 277.981 306.38 276.871 306.404 275.575C306.38 274.291 306.83 273.187 307.754 272.263C308.678 271.339 309.782 270.889 311.066 270.913C312.29 270.913 313.292 271.309 314.072 272.101C314.864 272.893 315.26 273.877 315.26 275.053C315.26 275.485 315.206 275.929 315.098 276.385ZM308.852 274.675H312.902C312.89 274.135 312.698 273.703 312.326 273.379C311.966 273.043 311.516 272.875 310.976 272.875C310.46 272.875 310.01 273.037 309.626 273.361C309.242 273.685 308.984 274.123 308.852 274.675ZM316.346 278.509L317.57 277.033C318.338 277.837 319.172 278.239 320.072 278.239C320.408 278.239 320.678 278.179 320.882 278.059C321.098 277.927 321.206 277.741 321.206 277.501C321.206 277.321 321.14 277.183 321.008 277.087C320.888 276.979 320.648 276.847 320.288 276.691L319.334 276.295C318.482 275.947 317.864 275.569 317.48 275.161C317.096 274.741 316.904 274.213 316.904 273.577C316.904 272.749 317.204 272.101 317.804 271.633C318.404 271.153 319.196 270.913 320.18 270.913C321.5 270.913 322.568 271.357 323.384 272.245L322.16 273.739C321.56 273.175 320.894 272.893 320.162 272.893C319.526 272.893 319.208 273.103 319.208 273.523C319.208 273.691 319.274 273.829 319.406 273.937C319.538 274.045 319.784 274.171 320.144 274.315L321.008 274.675C321.896 275.035 322.532 275.419 322.916 275.827C323.312 276.235 323.51 276.757 323.51 277.393C323.51 278.281 323.18 278.977 322.52 279.481C321.872 279.985 321.044 280.237 320.036 280.237C318.44 280.237 317.21 279.661 316.346 278.509ZM325.347 280.021V271.111H327.777V280.021H325.347ZM325.005 267.871C325.005 267.439 325.155 267.079 325.455 266.791C325.755 266.503 326.121 266.359 326.553 266.359C326.985 266.359 327.351 266.503 327.651 266.791C327.963 267.079 328.119 267.439 328.119 267.871C328.119 268.291 327.963 268.645 327.651 268.933C327.351 269.221 326.985 269.365 326.553 269.365C326.121 269.365 325.755 269.221 325.455 268.933C325.155 268.645 325.005 268.291 325.005 267.871ZM336.895 271.111H339.127V279.031C339.127 280.459 338.713 281.557 337.885 282.325C337.057 283.093 335.935 283.477 334.519 283.477C332.851 283.477 331.393 282.925 330.145 281.821L331.423 280.129C332.455 280.897 333.421 281.281 334.321 281.281C335.053 281.281 335.629 281.101 336.049 280.741C336.481 280.381 336.697 279.859 336.697 279.175V278.689C336.049 279.397 335.143 279.751 333.979 279.751C332.743 279.751 331.723 279.337 330.919 278.509C330.115 277.681 329.713 276.619 329.713 275.323C329.713 274.015 330.115 272.953 330.919 272.137C331.723 271.321 332.743 270.913 333.979 270.913C335.275 270.913 336.247 271.351 336.895 272.227V271.111ZM336.733 275.287C336.733 274.555 336.517 273.991 336.085 273.595C335.665 273.187 335.131 272.983 334.483 272.983C333.811 272.983 333.259 273.193 332.827 273.613C332.395 274.033 332.179 274.597 332.179 275.305C332.179 276.013 332.395 276.589 332.827 277.033C333.271 277.477 333.823 277.699 334.483 277.699C335.119 277.699 335.653 277.483 336.085 277.051C336.517 276.619 336.733 276.031 336.733 275.287ZM349.727 274.495V280.021H347.315V274.819C347.315 274.303 347.159 273.889 346.847 273.577C346.547 273.253 346.151 273.091 345.659 273.091C345.167 273.091 344.759 273.253 344.435 273.577C344.123 273.889 343.967 274.303 343.967 274.819V280.021H341.537V271.111H343.769V271.921C344.441 271.249 345.311 270.913 346.379 270.913C347.411 270.913 348.227 271.237 348.827 271.885C349.427 272.533 349.727 273.403 349.727 274.495Z" fill="white"/>
<rect opacity="0.2" x="26.9272" y="183.16" width="592.882" height="55.5556" fill="white"/>
<path d="M287.617 217.521V205.641H292.081C293.329 205.641 294.355 205.995 295.159 206.703C295.963 207.411 296.365 208.335 296.365 209.475C296.365 210.603 295.963 211.527 295.159 212.247C294.355 212.967 293.329 213.327 292.081 213.327H290.047V217.521H287.617ZM290.047 211.203H292.081C292.645 211.203 293.083 211.047 293.395 210.735C293.719 210.411 293.881 209.991 293.881 209.475C293.881 208.971 293.713 208.563 293.377 208.251C293.053 207.939 292.621 207.783 292.081 207.783H290.047V211.203ZM298.143 217.521V204.021H300.573V217.521H298.143ZM310.447 212.229V217.521H308.215V216.657C307.519 217.377 306.613 217.737 305.497 217.737C304.561 217.737 303.811 217.491 303.247 216.999C302.695 216.507 302.419 215.865 302.419 215.073C302.419 214.269 302.719 213.639 303.319 213.183C303.931 212.715 304.753 212.481 305.785 212.481H308.017V212.085C308.017 211.581 307.873 211.197 307.585 210.933C307.309 210.657 306.901 210.519 306.361 210.519C305.917 210.519 305.515 210.615 305.155 210.807C304.795 210.999 304.411 211.311 304.003 211.743L302.743 210.249C303.775 209.025 305.071 208.413 306.631 208.413C307.807 208.413 308.737 208.749 309.421 209.421C310.105 210.081 310.447 211.017 310.447 212.229ZM308.017 214.191V214.083H306.109C305.281 214.083 304.867 214.383 304.867 214.983C304.867 215.283 304.981 215.523 305.209 215.703C305.449 215.871 305.761 215.955 306.145 215.955C306.685 215.955 307.129 215.793 307.477 215.469C307.837 215.133 308.017 214.707 308.017 214.191ZM320.975 211.995V217.521H318.563V212.319C318.563 211.803 318.407 211.389 318.095 211.077C317.795 210.753 317.399 210.591 316.907 210.591C316.415 210.591 316.007 210.753 315.683 211.077C315.371 211.389 315.215 211.803 315.215 212.319V217.521H312.785V208.611H315.017V209.421C315.689 208.749 316.559 208.413 317.627 208.413C318.659 208.413 319.475 208.737 320.075 209.385C320.675 210.033 320.975 210.903 320.975 211.995ZM331.504 211.995V217.521H329.092V212.319C329.092 211.803 328.936 211.389 328.624 211.077C328.324 210.753 327.928 210.591 327.436 210.591C326.944 210.591 326.536 210.753 326.212 211.077C325.9 211.389 325.744 211.803 325.744 212.319V217.521H323.314V208.611H325.546V209.421C326.218 208.749 327.088 208.413 328.156 208.413C329.188 208.413 330.004 208.737 330.604 209.385C331.204 210.033 331.504 210.903 331.504 211.995ZM333.844 217.521V208.611H336.274V217.521H333.844ZM333.502 205.371C333.502 204.939 333.652 204.579 333.952 204.291C334.252 204.003 334.618 203.859 335.05 203.859C335.482 203.859 335.848 204.003 336.148 204.291C336.46 204.579 336.616 204.939 336.616 205.371C336.616 205.791 336.46 206.145 336.148 206.433C335.848 206.721 335.482 206.865 335.05 206.865C334.618 206.865 334.252 206.721 333.952 206.433C333.652 206.145 333.502 205.791 333.502 205.371ZM346.868 211.995V217.521H344.456V212.319C344.456 211.803 344.3 211.389 343.988 211.077C343.688 210.753 343.292 210.591 342.8 210.591C342.308 210.591 341.9 210.753 341.576 211.077C341.264 211.389 341.108 211.803 341.108 212.319V217.521H338.678V208.611H340.91V209.421C341.582 208.749 342.452 208.413 343.52 208.413C344.552 208.413 345.368 208.737 345.968 209.385C346.568 210.033 346.868 210.903 346.868 211.995ZM355.921 208.611H358.153V216.531C358.153 217.959 357.739 219.057 356.911 219.825C356.083 220.593 354.961 220.977 353.545 220.977C351.877 220.977 350.419 220.425 349.171 219.321L350.449 217.629C351.481 218.397 352.447 218.781 353.347 218.781C354.079 218.781 354.655 218.601 355.075 218.241C355.507 217.881 355.723 217.359 355.723 216.675V216.189C355.075 216.897 354.169 217.251 353.005 217.251C351.769 217.251 350.749 216.837 349.945 216.009C349.141 215.181 348.739 214.119 348.739 212.823C348.739 211.515 349.141 210.453 349.945 209.637C350.749 208.821 351.769 208.413 353.005 208.413C354.301 208.413 355.273 208.851 355.921 209.727V208.611ZM355.759 212.787C355.759 212.055 355.543 211.491 355.111 211.095C354.691 210.687 354.157 210.483 353.509 210.483C352.837 210.483 352.285 210.693 351.853 211.113C351.421 211.533 351.205 212.097 351.205 212.805C351.205 213.513 351.421 214.089 351.853 214.533C352.297 214.977 352.849 215.199 353.509 215.199C354.145 215.199 354.679 214.983 355.111 214.551C355.543 214.119 355.759 213.531 355.759 212.787Z" fill="white"/>
<rect opacity="0.2" x="152.795" width="341.146" height="176.215" fill="white"/>
<path d="M278.482 128.715H275.746L272.668 124.521H270.886V128.715H268.456V116.835H272.92C274.168 116.835 275.194 117.189 275.998 117.897C276.802 118.605 277.204 119.529 277.204 120.669C277.204 121.413 277.018 122.085 276.646 122.685C276.286 123.273 275.776 123.729 275.116 124.053L278.482 128.715ZM270.886 118.977V122.379H272.92C273.484 122.379 273.922 122.223 274.234 121.911C274.558 121.599 274.72 121.185 274.72 120.669C274.72 120.165 274.552 119.757 274.216 119.445C273.892 119.133 273.46 118.977 272.92 118.977H270.886ZM287.734 125.079H281.488C281.632 125.643 281.92 126.081 282.352 126.393C282.796 126.693 283.342 126.843 283.99 126.843C284.866 126.843 285.694 126.543 286.474 125.943L287.482 127.599C286.414 128.487 285.226 128.931 283.918 128.931C282.55 128.955 281.386 128.511 280.426 127.599C279.478 126.675 279.016 125.565 279.04 124.269C279.016 122.985 279.466 121.881 280.39 120.957C281.314 120.033 282.418 119.583 283.702 119.607C284.926 119.607 285.928 120.003 286.708 120.795C287.5 121.587 287.896 122.571 287.896 123.747C287.896 124.179 287.842 124.623 287.734 125.079ZM281.488 123.369H285.538C285.526 122.829 285.334 122.397 284.962 122.073C284.602 121.737 284.152 121.569 283.612 121.569C283.096 121.569 282.646 121.731 282.262 122.055C281.878 122.379 281.62 122.817 281.488 123.369ZM296.47 119.805H298.702V131.955H296.272V127.851C295.612 128.571 294.724 128.931 293.608 128.931C292.372 128.931 291.34 128.487 290.512 127.599C289.696 126.699 289.288 125.583 289.288 124.251C289.288 122.919 289.696 121.815 290.512 120.939C291.34 120.051 292.372 119.607 293.608 119.607C294.904 119.607 295.858 120.045 296.47 120.921V119.805ZM295.66 126.069C296.092 125.625 296.308 125.019 296.308 124.251C296.308 123.483 296.092 122.883 295.66 122.451C295.24 122.019 294.706 121.803 294.058 121.803C293.386 121.803 292.834 122.031 292.402 122.487C291.97 122.943 291.754 123.537 291.754 124.269C291.754 124.989 291.97 125.577 292.402 126.033C292.846 126.489 293.398 126.717 294.058 126.717C294.694 126.717 295.228 126.501 295.66 126.069ZM301.022 124.791V119.805H303.452V124.989C303.452 125.505 303.608 125.919 303.92 126.231C304.244 126.543 304.652 126.699 305.144 126.699C305.624 126.699 306.02 126.543 306.332 126.231C306.644 125.907 306.8 125.493 306.8 124.989V119.805H309.23V124.791C309.23 126.015 308.84 127.011 308.06 127.779C307.292 128.547 306.32 128.931 305.144 128.931C303.944 128.931 302.954 128.553 302.174 127.797C301.406 127.029 301.022 126.027 301.022 124.791ZM311.554 128.715V119.805H313.984V128.715H311.554ZM311.212 116.565C311.212 116.133 311.362 115.773 311.662 115.485C311.962 115.197 312.328 115.053 312.76 115.053C313.192 115.053 313.558 115.197 313.858 115.485C314.17 115.773 314.326 116.133 314.326 116.565C314.326 116.985 314.17 117.339 313.858 117.627C313.558 117.915 313.192 118.059 312.76 118.059C312.328 118.059 311.962 117.915 311.662 117.627C311.362 117.339 311.212 116.985 311.212 116.565ZM321.86 119.805V121.947H321.212C320.468 121.947 319.88 122.145 319.448 122.541C319.028 122.937 318.818 123.513 318.818 124.269V128.715H316.388V119.805H318.62V120.867C319.244 120.087 320.06 119.697 321.068 119.697C321.368 119.697 321.632 119.733 321.86 119.805ZM331.38 125.079H325.134C325.278 125.643 325.566 126.081 325.998 126.393C326.442 126.693 326.988 126.843 327.636 126.843C328.512 126.843 329.34 126.543 330.12 125.943L331.128 127.599C330.06 128.487 328.872 128.931 327.564 128.931C326.196 128.955 325.032 128.511 324.072 127.599C323.124 126.675 322.662 125.565 322.686 124.269C322.662 122.985 323.112 121.881 324.036 120.957C324.96 120.033 326.064 119.583 327.348 119.607C328.572 119.607 329.574 120.003 330.354 120.795C331.146 121.587 331.542 122.571 331.542 123.747C331.542 124.179 331.488 124.623 331.38 125.079ZM325.134 123.369H329.184C329.172 122.829 328.98 122.397 328.608 122.073C328.248 121.737 327.798 121.569 327.258 121.569C326.742 121.569 326.292 121.731 325.908 122.055C325.524 122.379 325.266 122.817 325.134 123.369ZM347.173 123.189V128.715H344.743V123.531C344.743 123.003 344.599 122.583 344.311 122.271C344.023 121.959 343.639 121.803 343.159 121.803C342.679 121.803 342.283 121.959 341.971 122.271C341.671 122.583 341.521 122.985 341.521 123.477V128.715H339.091V123.531C339.091 123.003 338.947 122.583 338.659 122.271C338.371 121.959 337.987 121.803 337.507 121.803C337.015 121.803 336.619 121.959 336.319 122.271C336.019 122.583 335.869 123.003 335.869 123.531V128.715H333.439V119.805H335.671V120.597C336.295 119.937 337.135 119.607 338.191 119.607C339.355 119.607 340.237 120.033 340.837 120.885C341.593 120.033 342.583 119.607 343.807 119.607C344.839 119.607 345.655 119.931 346.255 120.579C346.867 121.227 347.173 122.097 347.173 123.189ZM357.677 125.079H351.431C351.575 125.643 351.863 126.081 352.295 126.393C352.739 126.693 353.285 126.843 353.933 126.843C354.809 126.843 355.637 126.543 356.417 125.943L357.425 127.599C356.357 128.487 355.169 128.931 353.861 128.931C352.493 128.955 351.329 128.511 350.369 127.599C349.421 126.675 348.959 125.565 348.983 124.269C348.959 122.985 349.409 121.881 350.333 120.957C351.257 120.033 352.361 119.583 353.645 119.607C354.869 119.607 355.871 120.003 356.651 120.795C357.443 121.587 357.839 122.571 357.839 123.747C357.839 124.179 357.785 124.623 357.677 125.079ZM351.431 123.369H355.481C355.469 122.829 355.277 122.397 354.905 122.073C354.545 121.737 354.095 121.569 353.555 121.569C353.039 121.569 352.589 121.731 352.205 122.055C351.821 122.379 351.563 122.817 351.431 123.369ZM367.925 123.189V128.715H365.513V123.513C365.513 122.997 365.357 122.583 365.045 122.271C364.745 121.947 364.349 121.785 363.857 121.785C363.365 121.785 362.957 121.947 362.633 122.271C362.321 122.583 362.165 122.997 362.165 123.513V128.715H359.735V119.805H361.967V120.615C362.639 119.943 363.509 119.607 364.577 119.607C365.609 119.607 366.425 119.931 367.025 120.579C367.625 121.227 367.925 122.097 367.925 123.189ZM375.989 126.681V128.715C375.413 128.859 374.855 128.931 374.315 128.931C373.175 128.931 372.293 128.649 371.669 128.085C371.057 127.521 370.751 126.687 370.751 125.583V121.857H369.347V119.805H370.751V117.555H373.181V119.805H375.701V121.857H373.181V125.367C373.181 125.871 373.307 126.231 373.559 126.447C373.823 126.651 374.249 126.753 374.837 126.753C375.041 126.753 375.425 126.729 375.989 126.681ZM299.336 153.715L298.67 152.167H293.81L293.144 153.715H290.534L295.844 141.619H296.654L301.946 153.715H299.336ZM297.824 150.169L296.24 146.155L294.656 150.169H297.824ZM311.596 148.189V153.715H309.184V148.513C309.184 147.997 309.028 147.583 308.716 147.271C308.416 146.947 308.02 146.785 307.528 146.785C307.036 146.785 306.628 146.947 306.304 147.271C305.992 147.583 305.836 147.997 305.836 148.513V153.715H303.406V144.805H305.638V145.615C306.31 144.943 307.18 144.607 308.248 144.607C309.28 144.607 310.096 144.931 310.696 145.579C311.296 146.227 311.596 147.097 311.596 148.189ZM321.406 148.423V153.715H319.174V152.851C318.478 153.571 317.572 153.931 316.456 153.931C315.52 153.931 314.77 153.685 314.206 153.193C313.654 152.701 313.378 152.059 313.378 151.267C313.378 150.463 313.678 149.833 314.278 149.377C314.89 148.909 315.712 148.675 316.744 148.675H318.976V148.279C318.976 147.775 318.832 147.391 318.544 147.127C318.268 146.851 317.86 146.713 317.32 146.713C316.876 146.713 316.474 146.809 316.114 147.001C315.754 147.193 315.37 147.505 314.962 147.937L313.702 146.443C314.734 145.219 316.03 144.607 317.59 144.607C318.766 144.607 319.696 144.943 320.38 145.615C321.064 146.275 321.406 147.211 321.406 148.423ZM318.976 150.385V150.277H317.068C316.24 150.277 315.826 150.577 315.826 151.177C315.826 151.477 315.94 151.717 316.168 151.897C316.408 152.065 316.72 152.149 317.104 152.149C317.644 152.149 318.088 151.987 318.436 151.663C318.796 151.327 318.976 150.901 318.976 150.385ZM323.744 153.715V140.215H326.174V153.715H323.744ZM334.662 144.805H337.218L332.952 154.489C332.544 155.413 332.058 156.091 331.494 156.523C330.93 156.955 330.234 157.171 329.406 157.171C328.902 157.171 328.38 157.099 327.84 156.955V154.921C328.332 154.969 328.68 154.993 328.884 154.993C329.34 154.993 329.712 154.903 330 154.723C330.288 154.543 330.534 154.231 330.738 153.787L331.008 153.175L327.588 144.805H330.162L332.34 150.655L334.662 144.805ZM337.559 152.203L338.783 150.727C339.551 151.531 340.385 151.933 341.285 151.933C341.621 151.933 341.891 151.873 342.095 151.753C342.311 151.621 342.419 151.435 342.419 151.195C342.419 151.015 342.353 150.877 342.221 150.781C342.101 150.673 341.861 150.541 341.501 150.385L340.547 149.989C339.695 149.641 339.077 149.263 338.693 148.855C338.309 148.435 338.117 147.907 338.117 147.271C338.117 146.443 338.417 145.795 339.017 145.327C339.617 144.847 340.409 144.607 341.393 144.607C342.713 144.607 343.781 145.051 344.597 145.939L343.373 147.433C342.773 146.869 342.107 146.587 341.375 146.587C340.739 146.587 340.421 146.797 340.421 147.217C340.421 147.385 340.487 147.523 340.619 147.631C340.751 147.739 340.997 147.865 341.357 148.009L342.221 148.369C343.109 148.729 343.745 149.113 344.129 149.521C344.525 149.929 344.723 150.451 344.723 151.087C344.723 151.975 344.393 152.671 343.733 153.175C343.085 153.679 342.257 153.931 341.249 153.931C339.653 153.931 338.423 153.355 337.559 152.203ZM346.561 153.715V144.805H348.991V153.715H346.561ZM346.219 141.565C346.219 141.133 346.369 140.773 346.669 140.485C346.969 140.197 347.335 140.053 347.767 140.053C348.199 140.053 348.565 140.197 348.865 140.485C349.177 140.773 349.333 141.133 349.333 141.565C349.333 141.985 349.177 142.339 348.865 142.627C348.565 142.915 348.199 143.059 347.767 143.059C347.335 143.059 346.969 142.915 346.669 142.627C346.369 142.339 346.219 141.985 346.219 141.565ZM350.585 152.203L351.809 150.727C352.577 151.531 353.411 151.933 354.311 151.933C354.647 151.933 354.917 151.873 355.121 151.753C355.337 151.621 355.445 151.435 355.445 151.195C355.445 151.015 355.379 150.877 355.247 150.781C355.127 150.673 354.887 150.541 354.527 150.385L353.573 149.989C352.721 149.641 352.103 149.263 351.719 148.855C351.335 148.435 351.143 147.907 351.143 147.271C351.143 146.443 351.443 145.795 352.043 145.327C352.643 144.847 353.435 144.607 354.419 144.607C355.739 144.607 356.807 145.051 357.623 145.939L356.399 147.433C355.799 146.869 355.133 146.587 354.401 146.587C353.765 146.587 353.447 146.797 353.447 147.217C353.447 147.385 353.513 147.523 353.645 147.631C353.777 147.739 354.023 147.865 354.383 148.009L355.247 148.369C356.135 148.729 356.771 149.113 357.155 149.521C357.551 149.929 357.749 150.451 357.749 151.087C357.749 151.975 357.419 152.671 356.759 153.175C356.111 153.679 355.283 153.931 354.275 153.931C352.679 153.931 351.449 153.355 350.585 152.203Z" fill="white"/>
</g>
</g>
<defs>
<clipPath id="clip0_1602_2401">
<rect width="644.965" height="500" fill="white" transform="translate(0.0173645)"/>
</clipPath>
</defs>
</svg>
