<svg xmlns="http://www.w3.org/2000/svg" width="645" height="500" fill="none"><g clip-path="url(#a)"><mask id="b" width="643" height="494" x="1" y="6" maskUnits="userSpaceOnUse" style="mask-type:alpha"><path fill="#fff" d="m322.934 6.944 320.231 492.269-641.514.685L322.934 6.944Z"/></mask><g fill="#fff" mask="url(#b)"><path d="M-17.344 433.16H664.08v62.5H-17.344z" opacity=".2"/><path d="M271.81 469.257v-11.88h3.888c1.896-.024 3.456.522 4.68 1.638 1.224 1.104 1.824 2.526 1.8 4.266.024 1.728-.582 3.162-1.818 4.302-1.236 1.14-2.79 1.698-4.662 1.674h-3.888Zm2.43-2.196h1.44c1.2 0 2.166-.342 2.898-1.026.732-.696 1.098-1.614 1.098-2.754 0-1.152-.36-2.058-1.08-2.718-.72-.66-1.692-.99-2.916-.99h-1.44v7.488Zm18.026-1.44h-6.246c.144.564.432 1.002.864 1.314.444.3.99.45 1.638.45.876 0 1.704-.3 2.484-.9l1.008 1.656c-1.068.888-2.256 1.332-3.564 1.332-1.368.024-2.532-.42-3.492-1.332-.948-.924-1.41-2.034-1.386-3.33-.024-1.284.426-2.388 1.35-3.312.924-.924 2.028-1.374 3.312-1.35 1.224 0 2.226.396 3.006 1.188.792.792 1.188 1.776 1.188 2.952 0 .432-.054.876-.162 1.332Zm-6.246-1.71h4.05c-.012-.54-.204-.972-.576-1.296-.36-.336-.81-.504-1.35-.504-.516 0-.966.162-1.35.486-.384.324-.642.762-.774 1.314Zm16.476-2.43c.828.876 1.242 1.98 1.242 3.312 0 1.332-.414 2.448-1.242 3.348-.816.888-1.842 1.332-3.078 1.332-1.116 0-2.004-.36-2.664-1.08v4.104h-2.43v-12.15h2.232v1.116c.612-.876 1.566-1.314 2.862-1.314 1.236 0 2.262.444 3.078 1.332Zm-1.224 3.33c0-.732-.216-1.326-.648-1.782-.432-.456-.984-.684-1.656-.684-.648 0-1.188.216-1.62.648-.42.432-.63 1.032-.63 1.8s.21 1.374.63 1.818c.432.432.972.648 1.62.648.66 0 1.206-.228 1.638-.684.444-.456.666-1.044.666-1.764Zm4.372 4.446v-13.5h2.43v13.5h-2.43Zm4.33-4.464c-.024-1.272.438-2.37 1.386-3.294.948-.924 2.076-1.374 3.384-1.35 1.308-.024 2.436.426 3.384 1.35.96.924 1.428 2.022 1.404 3.294.024 1.272-.444 2.376-1.404 3.312-.96.924-2.094 1.374-3.402 1.35-1.308.024-2.436-.426-3.384-1.35-.936-.936-1.392-2.04-1.368-3.312Zm6.408 1.746c.444-.456.666-1.032.666-1.728s-.222-1.278-.666-1.746c-.432-.468-.978-.702-1.638-.702-.672 0-1.224.234-1.656.702-.432.456-.648 1.038-.648 1.746 0 .696.216 1.272.648 1.728.432.456.984.684 1.656.684.66 0 1.206-.228 1.638-.684Zm10.956-6.192h2.556l-4.266 9.684c-.408.924-.894 1.602-1.458 2.034-.564.432-1.26.648-2.088.648a6.07 6.07 0 0 1-1.566-.216v-2.034c.492.048.84.072 1.044.072.456 0 .828-.09 1.116-.27.288-.18.534-.492.738-.936l.27-.612-3.42-8.37h2.574l2.178 5.85 2.322-5.85Zm17.705 3.384v5.526h-2.43v-5.184c0-.528-.144-.948-.432-1.26-.288-.312-.672-.468-1.152-.468-.48 0-.876.156-1.188.468-.3.312-.45.714-.45 1.206v5.238h-2.43v-5.184c0-.528-.144-.948-.432-1.26-.288-.312-.672-.468-1.152-.468-.492 0-.888.156-1.188.468-.3.312-.45.732-.45 1.26v5.184h-2.43v-8.91h2.232v.792c.624-.66 1.464-.99 2.52-.99 1.164 0 2.046.426 2.646 1.278.756-.852 1.746-1.278 2.97-1.278 1.032 0 1.848.324 2.448.972.612.648.918 1.518.918 2.61Zm10.504 1.89h-6.246c.144.564.432 1.002.864 1.314.444.3.99.45 1.638.45.876 0 1.704-.3 2.484-.9l1.008 1.656c-1.068.888-2.256 1.332-3.564 1.332-1.368.024-2.532-.42-3.492-1.332-.948-.924-1.41-2.034-1.386-3.33-.024-1.284.426-2.388 1.35-3.312.924-.924 2.028-1.374 3.312-1.35 1.224 0 2.226.396 3.006 1.188.792.792 1.188 1.776 1.188 2.952 0 .432-.054.876-.162 1.332Zm-6.246-1.71h4.05c-.012-.54-.204-.972-.576-1.296-.36-.336-.81-.504-1.35-.504-.516 0-.966.162-1.35.486-.384.324-.642.762-.774 1.314Zm16.494-.18v5.526h-2.412v-5.202c0-.516-.156-.93-.468-1.242-.3-.324-.696-.486-1.188-.486s-.9.162-1.224.486c-.312.312-.468.726-.468 1.242v5.202h-2.43v-8.91h2.232v.81c.672-.672 1.542-1.008 2.61-1.008 1.032 0 1.848.324 2.448.972.6.648.9 1.518.9 2.61Zm8.064 3.492v2.034a6.893 6.893 0 0 1-1.674.216c-1.14 0-2.022-.282-2.646-.846-.612-.564-.918-1.398-.918-2.502v-3.726h-1.404v-2.052h1.404v-2.25h2.43v2.25h2.52v2.052h-2.52v3.51c0 .504.126.864.378 1.08.264.204.69.306 1.278.306.204 0 .588-.024 1.152-.072Z"/><path d="M26.927 370.66h592.882v55.556H26.927z" opacity=".2"/><path d="M295.397 405.021v-9.684h-3.798v-2.196h10.044v2.196h-3.816v9.684h-2.43Zm14.574-3.636h-6.246c.144.564.432 1.002.864 1.314.444.3.99.45 1.638.45.876 0 1.704-.3 2.484-.9l1.008 1.656c-1.068.888-2.256 1.332-3.564 1.332-1.368.024-2.532-.42-3.492-1.332-.948-.924-1.41-2.034-1.386-3.33-.024-1.284.426-2.388 1.35-3.312.924-.924 2.028-1.374 3.312-1.35 1.224 0 2.226.396 3.006 1.188.792.792 1.188 1.776 1.188 2.952 0 .432-.054.876-.162 1.332Zm-6.246-1.71h4.05c-.012-.54-.204-.972-.576-1.296-.36-.336-.81-.504-1.35-.504-.516 0-.966.162-1.35.486-.384.324-.642.762-.774 1.314Zm7.494 3.834 1.224-1.476c.768.804 1.602 1.206 2.502 1.206.336 0 .606-.06.81-.18a.62.62 0 0 0 .324-.558.48.48 0 0 0-.198-.414c-.12-.108-.36-.24-.72-.396l-.954-.396c-.852-.348-1.47-.726-1.854-1.134-.384-.42-.576-.948-.576-1.584 0-.828.3-1.476.9-1.944.6-.48 1.392-.72 2.376-.72 1.32 0 2.388.444 3.204 1.332l-1.224 1.494c-.6-.564-1.266-.846-1.998-.846-.636 0-.954.21-.954.63 0 .168.066.306.198.414.132.108.378.234.738.378l.864.36c.888.36 1.524.744 1.908 1.152.396.408.594.93.594 1.566 0 .888-.33 1.584-.99 2.088-.648.504-1.476.756-2.484.756-1.596 0-2.826-.576-3.69-1.728Zm14.726-.522v2.034a6.893 6.893 0 0 1-1.674.216c-1.14 0-2.022-.282-2.646-.846-.612-.564-.918-1.398-.918-2.502v-3.726h-1.404v-2.052h1.404v-2.25h2.43v2.25h2.52v2.052h-2.52v3.51c0 .504.126.864.378 1.08.264.204.69.306 1.278.306.204 0 .588-.024 1.152-.072Zm1.764 2.034v-8.91h2.43v8.91h-2.43Zm-.342-12.15c0-.432.15-.792.45-1.08.3-.288.666-.432 1.098-.432.432 0 .798.144 1.098.432.312.288.468.648.468 1.08 0 .42-.156.774-.468 1.062-.3.288-.666.432-1.098.432-.432 0-.798-.144-1.098-.432-.3-.288-.45-.642-.45-1.062Zm13.366 6.624v5.526h-2.412v-5.202c0-.516-.156-.93-.468-1.242-.3-.324-.696-.486-1.188-.486s-.9.162-1.224.486c-.312.312-.468.726-.468 1.242v5.202h-2.43v-8.91h2.232v.81c.672-.672 1.542-1.008 2.61-1.008 1.032 0 1.848.324 2.448.972.6.648.9 1.518.9 2.61Zm9.053-3.384h2.232v7.92c0 1.428-.414 2.526-1.242 3.294-.828.768-1.95 1.152-3.366 1.152-1.668 0-3.126-.552-4.374-1.656l1.278-1.692c1.032.768 1.998 1.152 2.898 1.152.732 0 1.308-.18 1.728-.54.432-.36.648-.882.648-1.566v-.486c-.648.708-1.554 1.062-2.718 1.062-1.236 0-2.256-.414-3.06-1.242-.804-.828-1.206-1.89-1.206-3.186 0-1.308.402-2.37 1.206-3.186.804-.816 1.824-1.224 3.06-1.224 1.296 0 2.268.438 2.916 1.314v-1.116Zm-.162 4.176c0-.732-.216-1.296-.648-1.692-.42-.408-.954-.612-1.602-.612-.672 0-1.224.21-1.656.63-.432.42-.648.984-.648 1.692s.216 1.284.648 1.728c.444.444.996.666 1.656.666.636 0 1.17-.216 1.602-.648.432-.432.648-1.02.648-1.764Z"/><path d="M26.927 308.16H619.81v55.555H26.927V308.16Z" opacity=".2"/><path d="M255.813 342.521v-11.88h2.43v11.88h-2.43Zm18.635-5.526v5.526h-2.43v-5.184c0-.528-.144-.948-.432-1.26-.288-.312-.672-.468-1.152-.468-.48 0-.876.156-1.188.468-.3.312-.45.714-.45 1.206v5.238h-2.43v-5.184c0-.528-.144-.948-.432-1.26-.288-.312-.672-.468-1.152-.468-.492 0-.888.156-1.188.468-.3.312-.45.732-.45 1.26v5.184h-2.43v-8.91h2.232v.792c.624-.66 1.464-.99 2.52-.99 1.164 0 2.046.426 2.646 1.278.756-.852 1.746-1.278 2.97-1.278 1.032 0 1.848.324 2.448.972.612.648.918 1.518.918 2.61Zm10.486-2.25c.828.876 1.242 1.98 1.242 3.312 0 1.332-.414 2.448-1.242 3.348-.816.888-1.842 1.332-3.078 1.332-1.116 0-2.004-.36-2.664-1.08v4.104h-2.43v-12.15h2.232v1.116c.612-.876 1.566-1.314 2.862-1.314 1.236 0 2.262.444 3.078 1.332Zm-1.224 3.33c0-.732-.216-1.326-.648-1.782-.432-.456-.984-.684-1.656-.684-.648 0-1.188.216-1.62.648-.42.432-.63 1.032-.63 1.8s.21 1.374.63 1.818c.432.432.972.648 1.62.648.66 0 1.206-.228 1.638-.684.444-.456.666-1.044.666-1.764Zm4.373 4.446v-13.5h2.43v13.5h-2.43Zm13.024-3.636h-6.246c.144.564.432 1.002.864 1.314.444.3.99.45 1.638.45.876 0 1.704-.3 2.484-.9l1.008 1.656c-1.068.888-2.256 1.332-3.564 1.332-1.368.024-2.532-.42-3.492-1.332-.948-.924-1.41-2.034-1.386-3.33-.024-1.284.426-2.388 1.35-3.312.924-.924 2.028-1.374 3.312-1.35 1.224 0 2.226.396 3.006 1.188.792.792 1.188 1.776 1.188 2.952 0 .432-.054.876-.162 1.332Zm-6.246-1.71h4.05c-.012-.54-.204-.972-.576-1.296-.36-.336-.81-.504-1.35-.504-.516 0-.966.162-1.35.486-.384.324-.642.762-.774 1.314Zm22.038-.18v5.526h-2.43v-5.184c0-.528-.144-.948-.432-1.26-.288-.312-.672-.468-1.152-.468-.48 0-.876.156-1.188.468-.3.312-.45.714-.45 1.206v5.238h-2.43v-5.184c0-.528-.144-.948-.432-1.26-.288-.312-.672-.468-1.152-.468-.492 0-.888.156-1.188.468-.3.312-.45.732-.45 1.26v5.184h-2.43v-8.91h2.232v.792c.624-.66 1.464-.99 2.52-.99 1.164 0 2.046.426 2.646 1.278.756-.852 1.746-1.278 2.97-1.278 1.032 0 1.848.324 2.448.972.612.648.918 1.518.918 2.61Zm10.505 1.89h-6.246c.144.564.432 1.002.864 1.314.444.3.99.45 1.638.45.876 0 1.704-.3 2.484-.9l1.008 1.656c-1.068.888-2.256 1.332-3.564 1.332-1.368.024-2.532-.42-3.492-1.332-.948-.924-1.41-2.034-1.386-3.33-.024-1.284.426-2.388 1.35-3.312.924-.924 2.028-1.374 3.312-1.35 1.224 0 2.226.396 3.006 1.188.792.792 1.188 1.776 1.188 2.952 0 .432-.054.876-.162 1.332Zm-6.246-1.71h4.05c-.012-.54-.204-.972-.576-1.296-.36-.336-.81-.504-1.35-.504-.516 0-.966.162-1.35.486-.384.324-.642.762-.774 1.314Zm16.494-.18v5.526h-2.412v-5.202c0-.516-.156-.93-.468-1.242-.3-.324-.696-.486-1.188-.486s-.9.162-1.224.486c-.312.312-.468.726-.468 1.242v5.202h-2.43v-8.91h2.232v.81c.672-.672 1.542-1.008 2.61-1.008 1.032 0 1.848.324 2.448.972.6.648.9 1.518.9 2.61Zm8.063 3.492v2.034a6.893 6.893 0 0 1-1.674.216c-1.14 0-2.022-.282-2.646-.846-.612-.564-.918-1.398-.918-2.502v-3.726h-1.404v-2.052h1.404v-2.25h2.43v2.25h2.52v2.052h-2.52v3.51c0 .504.126.864.378 1.08.264.204.69.306 1.278.306.204 0 .588-.024 1.152-.072Zm9.234-3.258v5.292h-2.232v-.864c-.696.72-1.602 1.08-2.718 1.08-.936 0-1.686-.246-2.25-.738-.552-.492-.828-1.134-.828-1.926 0-.804.3-1.434.9-1.89.612-.468 1.434-.702 2.466-.702h2.232v-.396c0-.504-.144-.888-.432-1.152-.276-.276-.684-.414-1.224-.414-.444 0-.846.096-1.206.288-.36.192-.744.504-1.152.936l-1.26-1.494c1.032-1.224 2.328-1.836 3.888-1.836 1.176 0 2.106.336 2.79 1.008.684.66 1.026 1.596 1.026 2.808Zm-2.43 1.962v-.108h-1.908c-.828 0-1.242.3-1.242.9 0 .3.114.54.342.72.24.168.552.252.936.252.54 0 .984-.162 1.332-.486.36-.336.54-.762.54-1.278Zm10.493 1.296v2.034a6.893 6.893 0 0 1-1.674.216c-1.14 0-2.022-.282-2.646-.846-.612-.564-.918-1.398-.918-2.502v-3.726h-1.404v-2.052h1.404v-2.25h2.43v2.25h2.52v2.052h-2.52v3.51c0 .504.126.864.378 1.08.264.204.69.306 1.278.306.204 0 .588-.024 1.152-.072Zm1.764 2.034v-8.91h2.43v8.91h-2.43Zm-.342-12.15c0-.432.15-.792.45-1.08.3-.288.666-.432 1.098-.432.432 0 .798.144 1.098.432.312.288.468.648.468 1.08 0 .42-.156.774-.468 1.062-.3.288-.666.432-1.098.432-.432 0-.798-.144-1.098-.432-.3-.288-.45-.642-.45-1.062Zm4.672 7.686c-.024-1.272.438-2.37 1.386-3.294.948-.924 2.076-1.374 3.384-1.35 1.308-.024 2.436.426 3.384 1.35.96.924 1.428 2.022 1.404 3.294.024 1.272-.444 2.376-1.404 3.312-.96.924-2.094 1.374-3.402 1.35-1.308.024-2.436-.426-3.384-1.35-.936-.936-1.392-2.04-1.368-3.312Zm6.408 1.746c.444-.456.666-1.032.666-1.728s-.222-1.278-.666-1.746c-.432-.468-.978-.702-1.638-.702-.672 0-1.224.234-1.656.702-.432.456-.648 1.038-.648 1.746 0 .696.216 1.272.648 1.728.432.456.984.684 1.656.684.66 0 1.206-.228 1.638-.684Zm13.237-2.808v5.526h-2.412v-5.202c0-.516-.156-.93-.468-1.242-.3-.324-.696-.486-1.188-.486s-.9.162-1.224.486c-.312.312-.468.726-.468 1.242v5.202h-2.43v-8.91h2.232v.81c.672-.672 1.542-1.008 2.61-1.008 1.032 0 1.848.324 2.448.972.6.648.9 1.518.9 2.61Z"/><path d="M26.927 245.66h592.882v55.556H26.927z" opacity=".2"/><path d="M294.642 280.021v-11.88h3.888c1.896-.024 3.456.522 4.68 1.638 1.224 1.104 1.824 2.526 1.8 4.266.024 1.728-.582 3.162-1.818 4.302-1.236 1.14-2.79 1.698-4.662 1.674h-3.888Zm2.43-2.196h1.44c1.2 0 2.166-.342 2.898-1.026.732-.696 1.098-1.614 1.098-2.754 0-1.152-.36-2.058-1.08-2.718-.72-.66-1.692-.99-2.916-.99h-1.44v7.488Zm18.026-1.44h-6.246c.144.564.432 1.002.864 1.314.444.3.99.45 1.638.45.876 0 1.704-.3 2.484-.9l1.008 1.656c-1.068.888-2.256 1.332-3.564 1.332-1.368.024-2.532-.42-3.492-1.332-.948-.924-1.41-2.034-1.386-3.33-.024-1.284.426-2.388 1.35-3.312.924-.924 2.028-1.374 3.312-1.35 1.224 0 2.226.396 3.006 1.188.792.792 1.188 1.776 1.188 2.952 0 .432-.054.876-.162 1.332Zm-6.246-1.71h4.05c-.012-.54-.204-.972-.576-1.296-.36-.336-.81-.504-1.35-.504-.516 0-.966.162-1.35.486-.384.324-.642.762-.774 1.314Zm7.494 3.834 1.224-1.476c.768.804 1.602 1.206 2.502 1.206.336 0 .606-.06.81-.18a.62.62 0 0 0 .324-.558.48.48 0 0 0-.198-.414c-.12-.108-.36-.24-.72-.396l-.954-.396c-.852-.348-1.47-.726-1.854-1.134-.384-.42-.576-.948-.576-1.584 0-.828.3-1.476.9-1.944.6-.48 1.392-.72 2.376-.72 1.32 0 2.388.444 3.204 1.332l-1.224 1.494c-.6-.564-1.266-.846-1.998-.846-.636 0-.954.21-.954.63 0 .168.066.306.198.414.132.108.378.234.738.378l.864.36c.888.36 1.524.744 1.908 1.152.396.408.594.93.594 1.566 0 .888-.33 1.584-.99 2.088-.648.504-1.476.756-2.484.756-1.596 0-2.826-.576-3.69-1.728Zm9.001 1.512v-8.91h2.43v8.91h-2.43Zm-.342-12.15c0-.432.15-.792.45-1.08.3-.288.666-.432 1.098-.432.432 0 .798.144 1.098.432.312.288.468.648.468 1.08 0 .42-.156.774-.468 1.062-.3.288-.666.432-1.098.432-.432 0-.798-.144-1.098-.432-.3-.288-.45-.642-.45-1.062Zm11.89 3.24h2.232v7.92c0 1.428-.414 2.526-1.242 3.294-.828.768-1.95 1.152-3.366 1.152-1.668 0-3.126-.552-4.374-1.656l1.278-1.692c1.032.768 1.998 1.152 2.898 1.152.732 0 1.308-.18 1.728-.54.432-.36.648-.882.648-1.566v-.486c-.648.708-1.554 1.062-2.718 1.062-1.236 0-2.256-.414-3.06-1.242-.804-.828-1.206-1.89-1.206-3.186 0-1.308.402-2.37 1.206-3.186.804-.816 1.824-1.224 3.06-1.224 1.296 0 2.268.438 2.916 1.314v-1.116Zm-.162 4.176c0-.732-.216-1.296-.648-1.692-.42-.408-.954-.612-1.602-.612-.672 0-1.224.21-1.656.63-.432.42-.648.984-.648 1.692s.216 1.284.648 1.728c.444.444.996.666 1.656.666.636 0 1.17-.216 1.602-.648.432-.432.648-1.02.648-1.764Zm12.994-.792v5.526h-2.412v-5.202c0-.516-.156-.93-.468-1.242-.3-.324-.696-.486-1.188-.486s-.9.162-1.224.486c-.312.312-.468.726-.468 1.242v5.202h-2.43v-8.91h2.232v.81c.672-.672 1.542-1.008 2.61-1.008 1.032 0 1.848.324 2.448.972.6.648.9 1.518.9 2.61Z"/><path d="M26.927 183.16h592.882v55.556H26.927z" opacity=".2"/><path d="M287.617 217.521v-11.88h4.464c1.248 0 2.274.354 3.078 1.062.804.708 1.206 1.632 1.206 2.772 0 1.128-.402 2.052-1.206 2.772-.804.72-1.83 1.08-3.078 1.08h-2.034v4.194h-2.43Zm2.43-6.318h2.034c.564 0 1.002-.156 1.314-.468.324-.324.486-.744.486-1.26 0-.504-.168-.912-.504-1.224-.324-.312-.756-.468-1.296-.468h-2.034v3.42Zm8.096 6.318v-13.5h2.43v13.5h-2.43Zm12.304-5.292v5.292h-2.232v-.864c-.696.72-1.602 1.08-2.718 1.08-.936 0-1.686-.246-2.25-.738-.552-.492-.828-1.134-.828-1.926 0-.804.3-1.434.9-1.89.612-.468 1.434-.702 2.466-.702h2.232v-.396c0-.504-.144-.888-.432-1.152-.276-.276-.684-.414-1.224-.414-.444 0-.846.096-1.206.288-.36.192-.744.504-1.152.936l-1.26-1.494c1.032-1.224 2.328-1.836 3.888-1.836 1.176 0 2.106.336 2.79 1.008.684.66 1.026 1.596 1.026 2.808Zm-2.43 1.962v-.108h-1.908c-.828 0-1.242.3-1.242.9 0 .3.114.54.342.72.24.168.552.252.936.252.54 0 .984-.162 1.332-.486.36-.336.54-.762.54-1.278Zm12.958-2.196v5.526h-2.412v-5.202c0-.516-.156-.93-.468-1.242-.3-.324-.696-.486-1.188-.486s-.9.162-1.224.486c-.312.312-.468.726-.468 1.242v5.202h-2.43v-8.91h2.232v.81c.672-.672 1.542-1.008 2.61-1.008 1.032 0 1.848.324 2.448.972.6.648.9 1.518.9 2.61Zm10.529 0v5.526h-2.412v-5.202c0-.516-.156-.93-.468-1.242-.3-.324-.696-.486-1.188-.486s-.9.162-1.224.486c-.312.312-.468.726-.468 1.242v5.202h-2.43v-8.91h2.232v.81c.672-.672 1.542-1.008 2.61-1.008 1.032 0 1.848.324 2.448.972.6.648.9 1.518.9 2.61Zm2.34 5.526v-8.91h2.43v8.91h-2.43Zm-.342-12.15c0-.432.15-.792.45-1.08.3-.288.666-.432 1.098-.432.432 0 .798.144 1.098.432.312.288.468.648.468 1.08 0 .42-.156.774-.468 1.062-.3.288-.666.432-1.098.432-.432 0-.798-.144-1.098-.432-.3-.288-.45-.642-.45-1.062Zm13.366 6.624v5.526h-2.412v-5.202c0-.516-.156-.93-.468-1.242-.3-.324-.696-.486-1.188-.486s-.9.162-1.224.486c-.312.312-.468.726-.468 1.242v5.202h-2.43v-8.91h2.232v.81c.672-.672 1.542-1.008 2.61-1.008 1.032 0 1.848.324 2.448.972.6.648.9 1.518.9 2.61Zm9.053-3.384h2.232v7.92c0 1.428-.414 2.526-1.242 3.294-.828.768-1.95 1.152-3.366 1.152-1.668 0-3.126-.552-4.374-1.656l1.278-1.692c1.032.768 1.998 1.152 2.898 1.152.732 0 1.308-.18 1.728-.54.432-.36.648-.882.648-1.566v-.486c-.648.708-1.554 1.062-2.718 1.062-1.236 0-2.256-.414-3.06-1.242-.804-.828-1.206-1.89-1.206-3.186 0-1.308.402-2.37 1.206-3.186.804-.816 1.824-1.224 3.06-1.224 1.296 0 2.268.438 2.916 1.314v-1.116Zm-.162 4.176c0-.732-.216-1.296-.648-1.692-.42-.408-.954-.612-1.602-.612-.672 0-1.224.21-1.656.63-.432.42-.648.984-.648 1.692s.216 1.284.648 1.728c.444.444.996.666 1.656.666.636 0 1.17-.216 1.602-.648.432-.432.648-1.02.648-1.764Z"/><path d="M152.795 0h341.146v176.215H152.795z" opacity=".2"/><path d="M278.482 128.715h-2.736l-3.078-4.194h-1.782v4.194h-2.43v-11.88h4.464c1.248 0 2.274.354 3.078 1.062.804.708 1.206 1.632 1.206 2.772 0 .744-.186 1.416-.558 2.016a3.612 3.612 0 0 1-1.53 1.368l3.366 4.662Zm-7.596-9.738v3.402h2.034c.564 0 1.002-.156 1.314-.468.324-.312.486-.726.486-1.242 0-.504-.168-.912-.504-1.224-.324-.312-.756-.468-1.296-.468h-2.034Zm16.848 6.102h-6.246c.144.564.432 1.002.864 1.314.444.3.99.45 1.638.45.876 0 1.704-.3 2.484-.9l1.008 1.656c-1.068.888-2.256 1.332-3.564 1.332-1.368.024-2.532-.42-3.492-1.332-.948-.924-1.41-2.034-1.386-3.33-.024-1.284.426-2.388 1.35-3.312.924-.924 2.028-1.374 3.312-1.35 1.224 0 2.226.396 3.006 1.188.792.792 1.188 1.776 1.188 2.952 0 .432-.054.876-.162 1.332Zm-6.246-1.71h4.05c-.012-.54-.204-.972-.576-1.296-.36-.336-.81-.504-1.35-.504-.516 0-.966.162-1.35.486-.384.324-.642.762-.774 1.314Zm14.982-3.564h2.232v12.15h-2.43v-4.104c-.66.72-1.548 1.08-2.664 1.08-1.236 0-2.268-.444-3.096-1.332-.816-.9-1.224-2.016-1.224-3.348 0-1.332.408-2.436 1.224-3.312.828-.888 1.86-1.332 3.096-1.332 1.296 0 2.25.438 2.862 1.314v-1.116Zm-.81 6.264c.432-.444.648-1.05.648-1.818s-.216-1.368-.648-1.8c-.42-.432-.954-.648-1.602-.648-.672 0-1.224.228-1.656.684-.432.456-.648 1.05-.648 1.782 0 .72.216 1.308.648 1.764.444.456.996.684 1.656.684.636 0 1.17-.216 1.602-.648Zm5.362-1.278v-4.986h2.43v5.184c0 .516.156.93.468 1.242.324.312.732.468 1.224.468.48 0 .876-.156 1.188-.468.312-.324.468-.738.468-1.242v-5.184h2.43v4.986c0 1.224-.39 2.22-1.17 2.988-.768.768-1.74 1.152-2.916 1.152-1.2 0-2.19-.378-2.97-1.134-.768-.768-1.152-1.77-1.152-3.006Zm10.532 3.924v-8.91h2.43v8.91h-2.43Zm-.342-12.15c0-.432.15-.792.45-1.08.3-.288.666-.432 1.098-.432.432 0 .798.144 1.098.432.312.288.468.648.468 1.08 0 .42-.156.774-.468 1.062-.3.288-.666.432-1.098.432-.432 0-.798-.144-1.098-.432-.3-.288-.45-.642-.45-1.062Zm10.648 3.24v2.142h-.648c-.744 0-1.332.198-1.764.594-.42.396-.63.972-.63 1.728v4.446h-2.43v-8.91h2.232v1.062c.624-.78 1.44-1.17 2.448-1.17.3 0 .564.036.792.108Zm9.52 5.274h-6.246c.144.564.432 1.002.864 1.314.444.3.99.45 1.638.45.876 0 1.704-.3 2.484-.9l1.008 1.656c-1.068.888-2.256 1.332-3.564 1.332-1.368.024-2.532-.42-3.492-1.332-.948-.924-1.41-2.034-1.386-3.33-.024-1.284.426-2.388 1.35-3.312.924-.924 2.028-1.374 3.312-1.35 1.224 0 2.226.396 3.006 1.188.792.792 1.188 1.776 1.188 2.952 0 .432-.054.876-.162 1.332Zm-6.246-1.71h4.05c-.012-.54-.204-.972-.576-1.296-.36-.336-.81-.504-1.35-.504-.516 0-.966.162-1.35.486-.384.324-.642.762-.774 1.314Zm22.039-.18v5.526h-2.43v-5.184c0-.528-.144-.948-.432-1.26-.288-.312-.672-.468-1.152-.468-.48 0-.876.156-1.188.468-.3.312-.45.714-.45 1.206v5.238h-2.43v-5.184c0-.528-.144-.948-.432-1.26-.288-.312-.672-.468-1.152-.468-.492 0-.888.156-1.188.468-.3.312-.45.732-.45 1.26v5.184h-2.43v-8.91h2.232v.792c.624-.66 1.464-.99 2.52-.99 1.164 0 2.046.426 2.646 1.278.756-.852 1.746-1.278 2.97-1.278 1.032 0 1.848.324 2.448.972.612.648.918 1.518.918 2.61Zm10.504 1.89h-6.246c.144.564.432 1.002.864 1.314.444.3.99.45 1.638.45.876 0 1.704-.3 2.484-.9l1.008 1.656c-1.068.888-2.256 1.332-3.564 1.332-1.368.024-2.532-.42-3.492-1.332-.948-.924-1.41-2.034-1.386-3.33-.024-1.284.426-2.388 1.35-3.312.924-.924 2.028-1.374 3.312-1.35 1.224 0 2.226.396 3.006 1.188.792.792 1.188 1.776 1.188 2.952 0 .432-.054.876-.162 1.332Zm-6.246-1.71h4.05c-.012-.54-.204-.972-.576-1.296-.36-.336-.81-.504-1.35-.504-.516 0-.966.162-1.35.486-.384.324-.642.762-.774 1.314Zm16.494-.18v5.526h-2.412v-5.202c0-.516-.156-.93-.468-1.242-.3-.324-.696-.486-1.188-.486s-.9.162-1.224.486c-.312.312-.468.726-.468 1.242v5.202h-2.43v-8.91h2.232v.81c.672-.672 1.542-1.008 2.61-1.008 1.032 0 1.848.324 2.448.972.6.648.9 1.518.9 2.61Zm8.064 3.492v2.034a6.893 6.893 0 0 1-1.674.216c-1.14 0-2.022-.282-2.646-.846-.612-.564-.918-1.398-.918-2.502v-3.726h-1.404v-2.052h1.404v-2.25h2.43v2.25h2.52v2.052h-2.52v3.51c0 .504.126.864.378 1.08.264.204.69.306 1.278.306.204 0 .588-.024 1.152-.072Zm-76.653 27.034-.666-1.548h-4.86l-.666 1.548h-2.61l5.31-12.096h.81l5.292 12.096h-2.61Zm-1.512-3.546-1.584-4.014-1.584 4.014h3.168Zm13.772-1.98v5.526h-2.412v-5.202c0-.516-.156-.93-.468-1.242-.3-.324-.696-.486-1.188-.486s-.9.162-1.224.486c-.312.312-.468.726-.468 1.242v5.202h-2.43v-8.91h2.232v.81c.672-.672 1.542-1.008 2.61-1.008 1.032 0 1.848.324 2.448.972.6.648.9 1.518.9 2.61Zm9.81.234v5.292h-2.232v-.864c-.696.72-1.602 1.08-2.718 1.08-.936 0-1.686-.246-2.25-.738-.552-.492-.828-1.134-.828-1.926 0-.804.3-1.434.9-1.89.612-.468 1.434-.702 2.466-.702h2.232v-.396c0-.504-.144-.888-.432-1.152-.276-.276-.684-.414-1.224-.414-.444 0-.846.096-1.206.288-.36.192-.744.504-1.152.936l-1.26-1.494c1.032-1.224 2.328-1.836 3.888-1.836 1.176 0 2.106.336 2.79 1.008.684.66 1.026 1.596 1.026 2.808Zm-2.43 1.962v-.108h-1.908c-.828 0-1.242.3-1.242.9 0 .3.114.54.342.72.24.168.552.252.936.252.54 0 .984-.162 1.332-.486.36-.336.54-.762.54-1.278Zm4.768 3.33v-13.5h2.43v13.5h-2.43Zm10.918-8.91h2.556l-4.266 9.684c-.408.924-.894 1.602-1.458 2.034-.564.432-1.26.648-2.088.648a6.07 6.07 0 0 1-1.566-.216v-2.034c.492.048.84.072 1.044.072.456 0 .828-.09 1.116-.27.288-.18.534-.492.738-.936l.27-.612-3.42-8.37h2.574l2.178 5.85 2.322-5.85Zm2.897 7.398 1.224-1.476c.768.804 1.602 1.206 2.502 1.206.336 0 .606-.06.81-.18a.62.62 0 0 0 .324-.558.48.48 0 0 0-.198-.414c-.12-.108-.36-.24-.72-.396l-.954-.396c-.852-.348-1.47-.726-1.854-1.134-.384-.42-.576-.948-.576-1.584 0-.828.3-1.476.9-1.944.6-.48 1.392-.72 2.376-.72 1.32 0 2.388.444 3.204 1.332l-1.224 1.494c-.6-.564-1.266-.846-1.998-.846-.636 0-.954.21-.954.63 0 .168.066.306.198.414.132.108.378.234.738.378l.864.36c.888.36 1.524.744 1.908 1.152.396.408.594.93.594 1.566 0 .888-.33 1.584-.99 2.088-.648.504-1.476.756-2.484.756-1.596 0-2.826-.576-3.69-1.728Zm9.002 1.512v-8.91h2.43v8.91h-2.43Zm-.342-12.15c0-.432.15-.792.45-1.08.3-.288.666-.432 1.098-.432.432 0 .798.144 1.098.432.312.288.468.648.468 1.08 0 .42-.156.774-.468 1.062-.3.288-.666.432-1.098.432-.432 0-.798-.144-1.098-.432-.3-.288-.45-.642-.45-1.062Zm4.366 10.638 1.224-1.476c.768.804 1.602 1.206 2.502 1.206.336 0 .606-.06.81-.18a.62.62 0 0 0 .324-.558.48.48 0 0 0-.198-.414c-.12-.108-.36-.24-.72-.396l-.954-.396c-.852-.348-1.47-.726-1.854-1.134-.384-.42-.576-.948-.576-1.584 0-.828.3-1.476.9-1.944.6-.48 1.392-.72 2.376-.72 1.32 0 2.388.444 3.204 1.332l-1.224 1.494c-.6-.564-1.266-.846-1.998-.846-.636 0-.954.21-.954.63 0 .168.066.306.198.414.132.108.378.234.738.378l.864.36c.888.36 1.524.744 1.908 1.152.396.408.594.93.594 1.566 0 .888-.33 1.584-.99 2.088-.648.504-1.476.756-2.484.756-1.596 0-2.826-.576-3.69-1.728Z"/></g></g><defs><clipPath id="a"><path fill="#fff" d="M.017 0h644.965v500H.017z"/></clipPath></defs></svg>